<svg width="2813" height="2178" xmlns="http://www.w3.org/2000/svg" xmlns:xlink="http://www.w3.org/1999/xlink" xml:space="preserve" overflow="hidden"><g transform="translate(-1540 -300)"><path d="M3266.25 888.5C3266.25 888.5 3366.04 891.151 3369.7 893.802 3373.37 896.453 3386.15 907.025 3388.58 918.669 3391.01 930.314 3391.63 944.578 3406.22 946.693 3420.82 948.807 3461 943 3473.78 946.693 3486.56 950.385 3495.67 961.493 3497.52 969.982 3499.33 978.44 3501.77 993.272 3509.06 996.964 3516.36 1000.66 3535.85 1027.64 3537.67 1038.21 3539.48 1048.78 3545.58 1050.39 3560.17 1054.08 3574.77 1057.78 3580.87 1063.08 3579.05 1069.42 3577.24 1075.76 3589.4 1082.64 3593.64 1088.45 3597.89 1094.26 3613.72 1100.63 3617.38 1103.79 3621.05 1106.97 3631.4 1115.97 3638.69 1121.78 3645.99 1127.58 3663.01 1125.47 3662.43 1136.07 3661.82 1146.64 3661.82 1152.48 3668.53 1157.21 3675.21 1161.98 3681.93 1158.79 3681.93 1167.25 3681.93 1175.71 3686.17 1204.27 3678.88 1204.8 3671.58 1205.34 3667.33 1188.93 3663.05 1196.88 3658.8 1204.8 3668.53 1221.75 3674.59 1226.52 3680.69 1231.28 3689.19 1249.8 3692.24 1256.15 3695.29 1262.49 3708.68 1273.06 3712.31 1276.25 3715.98 1279.44 3723.27 1291.05 3725.71 1299.54 3728.14 1308 3733 1326.52 3737.87 1331.79 3742.73 1337.09 3762.8 1357.7 3772.53 1363 3782.26 1368.3 3794.42 1360.89 3801.76 1363 3809.05 1365.12 3813.92 1371.46 3818.2 1372 3822.45 1372.53 3829.16 1354.01 3832.79 1357.7 3836.46 1361.39 3835.23 1375.15 3829.74 1376.73 3824.26 1378.31 3817.58 1379.92 3815.73 1384.15 3813.92 1388.37 3813.92 1395.25 3820.6 1394.72 3827.27 1394.18 3839.47 1394.72 3839.47 1394.72 3839.47 1394.72 3842.52 1399.45 3842.52 1401.03 3842.52 1402.61 3845.57 1420.6 3848.62 1423.25 3851.67 1425.9 3880.85 1450.76 3880.85 1450.76 3880.85 1450.76 3958.76 1529.06 3961.77 1529.6 3964.82 1530.13 4107.19 1542.28 4107.19 1542.28L4224.62 1550.74C4224.62 1550.74 4245.31 1551.81 4252.61 1550.74 4259.91 1549.67 4268.44 1551.81 4275.73 1559.73 4283.03 1567.65 4316.5 1611.05 4316.5 1611.05L4294.61 1684.58 4266.62 1785.09C4266.62 1785.09 4258.09 1830.06 4239.25 1836.4 4220.38 1842.74 4006.2 1918.92 3989.79 1924.19 3973.35 1929.5 3859.58 1968.63 3849.85 1968.09 3840.13 1967.55 3739.1 1979.2 3709.91 1982.39 3680.69 1985.57 3592.48 1991.92 3582.14 1995.07 3571.79 1998.26 3511.57 2029.47 3495.12 2032.63 3478.68 2035.81 3452.54 2061.72 3442.2 2071.25 3431.85 2080.78 3412.97 2104.04 3411.16 2105.65 3409.34 2107.23 3391.08 2130.52 3389.27 2135.28 3387.45 2140.05 3378.31 2157.5 3378.31 2157.5L3402.05 1986.11 3416.06 1902.55 3449.53 1646.52 3471.42 1500.53C3471.42 1500.53 3482.38 1449.22 3477.52 1437.07 3472.65 1424.89 3459.88 1398.98 3439.8 1386.29 3419.73 1373.61 3392.94 1360.38 3388.07 1350.32 3383.21 1340.28 3380.78 1304.81 3381.39 1291.59 3382.01 1278.36 3380.16 1234.47 3381.39 1221.75 3382.63 1209.06 3381.39 1187.89 3366.18 1182.62 3350.97 1177.32 3337.58 1173.62 3333.95 1170.97 3330.28 1168.32 3324.22 1150.33 3307.16 1149.29 3290.13 1148.22 3280.98 1151.41 3273.69 1147.18 3266.39 1142.95 3241.45 1127.08 3232.92 1126.04 3224.39 1124.99 3204.93 1126.04 3197.64 1119.69 3190.34 1113.35 3179.38 1103.28 3159.92 1096.94 3140.46 1090.6 3129.5 1086.9 3127.69 1079.49 3125.87 1072.07 3115.93 1060.08 3112.48 1056.39 3109.03 1052.7 3103.15 1040.36 3104.78 1036.29 3106.41 1032.21 3124.67 1009.15 3129.1 1004.89 3133.53 1000.62 3154.04 970.866 3156.29 964.87 3158.51 958.874 3183.37 926.622 3187.33 922.898 3191.29 919.206 3200.72 910.717 3208.93 907.813 3217.13 904.91 3226.57 903.837 3234.48 901.723 3242.4 899.609 3266.43 888.5 3266.43 888.5L3266.25 888.5Z" stroke="#FFFFFF" stroke-width="4.58333" stroke-miterlimit="8" fill="#8FCEC7" fill-rule="evenodd" fill-opacity="0.701961"/><path d="M3112.03 1055.8C3115.48 1059.5 3125.43 1071.51 3127.25 1078.93 3129.06 1086.36 3140.03 1090.06 3159.5 1096.41 3178.97 1102.76 3189.94 1112.84 3197.24 1119.19 3204.54 1125.54 3224.04 1124.5 3232.54 1125.54 3241.07 1126.61 3266.02 1142.48 3273.32 1146.71 3280.62 1150.95 3289.78 1147.79 3306.81 1148.83 3323.84 1149.9 3329.95 1167.88 3333.61 1170.54 3337.28 1173.19 3350.65 1176.89 3365.86 1182.2 3381.08 1187.5 3382.32 1208.68 3381.08 1221.38 3379.85 1234.08 3381.7 1278.06 3381.08 1291.3 3380.47 1304.54 3382.9 1340.03 3387.77 1350.11 3392.63 1360.16 3419.44 1373.43 3439.52 1386.13 3459.6 1398.83 3472.39 1424.81 3477.25 1436.97 3482.12 1449.17 3471.15 1500.52 3471.15 1500.52L3449.25 1646.69 3415.77 1903.05C3415.77 1903.05 3363.21 1914.23 3339.79 1916.35 3316.36 1918.47 3190.95 1928.8 3183.94 1928.8 3176.93 1928.8 3099.94 1930.38 3090.78 1928.8 3081.67 1927.22 3069.18 1922.98 3062.49 1917.68 3055.81 1912.37 3048.47 1900.74 3034.2 1892.52 3019.89 1884.31 2974.85 1852.8 2972.71 1846.71 2970.57 1840.61 2971.8 1829.23 2974.53 1823.13 2977.25 1817.04 2989.13 1805.66 2987.93 1797.44 2986.7 1789.23 2972.09 1774.66 2967.52 1769.89 2962.94 1765.12 2958.4 1759.31 2953.83 1754.28 2949.25 1749.26 2935.27 1736.81 2930.07 1728.59 2924.92 1720.38 2912.13 1704.48 2912.42 1697.34 2912.71 1690.2 2919.11 1686.47 2919.72 1682.52 2920.34 1678.54 2918.49 1660.28 2922.45 1655.79 2926.41 1651.3 2929.13 1643.34 2928.22 1638.32 2927.31 1633.29 2922.74 1614.74 2923.65 1606.02 2924.55 1597.27 2929.13 1591.71 2927.6 1586.68 2926.08 1581.66 2919.4 1577.43 2910.24 1577.14 2901.13 1576.89 2886.82 1579.51 2881.33 1577.68 2875.85 1575.81 2869.46 1573.44 2869.46 1566.81 2869.46 1560.17 2874.32 1552.5 2875.23 1547.22 2876.14 1541.91 2870.37 1538.47 2855.77 1536.89 2841.16 1535.31 2805.54 1532.65 2802.19 1527.09 2798.85 1521.53 2790.03 1510.41 2788.18 1499.82 2786.36 1489.24 2783.02 1472.01 2779.97 1462.22 2776.92 1452.42 2771.76 1448.73 2767.8 1444.21 2763.84 1439.72 2763.84 1428.06 2763.55 1424.08 2763.26 1420.1 2764.17 1379.34 2767.22 1374.03 2770.27 1368.72 2778.77 1366.89 2778.48 1360.54 2778.19 1354.19 2776.95 1350.2 2782.44 1346.22 2787.92 1342.24 2791.26 1338.54 2795.51 1338.54 2799.76 1338.54 2820.46 1349.41 2826.56 1349.67 2832.67 1349.92 2846.36 1352.04 2853.04 1349.67 2859.72 1347.3 2858.2 1345.69 2865.83 1347.01 2873.45 1348.34 2881.95 1351.25 2888.05 1351.25 2894.15 1351.25 2900.55 1348.34 2895.68 1340.12 2890.81 1331.91 2888.67 1324.51 2890.52 1321.58 2892.34 1318.67 2914.27 1299.33 2919.14 1298.26 2924.01 1297.18 2955.06 1293.23 2960.22 1289.79 2965.38 1286.34 2982.12 1279.99 2983.97 1274.18 2985.79 1268.36 2994.61 1261.73 3001.62 1260.15 3008.63 1258.57 3016.84 1261.48 3030.24 1261.48 3043.64 1261.48 3060.97 1262.55 3065.87 1261.73 3070.74 1260.94 3075.6 1256.96 3077.13 1251.68 3078.65 1246.37 3075.31 1235.25 3073.79 1230.51 3072.26 1225.74 3070.12 1226.02 3071.97 1221.76 3073.79 1217.52 3072.88 1214.62 3068.92 1210.89 3064.96 1207.16 3056.75 1193.13 3050.98 1188.39 3045.2 1183.62 3037.9 1179.64 3039.43 1172.5 3040.96 1165.35 3048.55 1160.3 3045.82 1153.16 3043.1 1146.02 3038.52 1141.78 3043.1 1140.17 3047.67 1138.59 3057.41 1142.29 3061.04 1137.26 3064.71 1132.24 3067.43 1125.6 3072.92 1121.65 3078.4 1117.67 3089.95 1120.33 3091.8 1115.3 3093.62 1110.28 3088.46 1096.75 3082.98 1091.19 3077.49 1085.63 3071.43 1087.75 3069.28 1083.77 3067.14 1079.79 3065.62 1076.63 3068.38 1070.28 3071.1 1063.92 3072.95 1061.52 3077.2 1058.08 3081.45 1054.63 3082.36 1053.28 3088.46 1055.8 3094.56 1058.33 3097.9 1059.94 3100.63 1058.62 3103.35 1057.29 3112.07 1055.8 3112.07 1055.8L3112.03 1055.8Z" stroke="#FFFFFF" stroke-width="4.58333" stroke-miterlimit="8" fill="#8FCEC7" fill-rule="evenodd" fill-opacity="0.701961"/><path d="M3069.61 1083.9C3071.75 1087.88 3077.82 1085.76 3083.3 1091.33 3088.79 1096.89 3093.95 1110.39 3092.13 1115.44 3090.31 1120.47 3078.73 1117.81 3073.24 1121.79 3067.76 1125.78 3065.03 1132.38 3061.37 1137.41 3057.7 1142.43 3047.96 1138.74 3043.42 1140.32 3038.85 1141.9 3043.42 1146.13 3046.15 1153.31 3048.87 1160.45 3041.28 1165.51 3039.76 1172.65 3038.23 1179.79 3045.53 1183.77 3051.31 1188.55 3057.08 1193.32 3065.32 1207.35 3069.25 1211.05 3073.21 1214.75 3074.11 1217.69 3072.3 1221.92 3070.48 1226.16 3072.59 1225.91 3074.11 1230.68 3075.64 1235.45 3078.98 1246.58 3077.46 1251.85 3075.93 1257.13 3071.06 1261.12 3066.2 1261.91 3061.33 1262.7 3043.97 1261.65 3030.57 1261.65 3017.16 1261.65 3008.96 1258.74 3001.95 1260.32 2994.94 1261.91 2986.11 1268.54 2984.29 1274.36 2982.48 1280.17 2965.73 1286.56 2960.54 1289.97 2955.38 1293.42 2924.33 1297.4 2919.46 1298.44 2914.6 1299.52 2892.66 1318.83 2890.84 1321.77 2889.03 1324.68 2891.13 1332.1 2896 1340.32 2900.87 1348.54 2894.47 1351.45 2888.37 1351.45 2882.27 1351.45 2873.77 1348.54 2866.14 1347.21 2858.52 1345.88 2860.04 1347.46 2853.36 1349.87 2846.68 1352.24 2832.95 1350.12 2826.88 1349.87 2820.82 1349.61 2800.08 1338.74 2795.83 1338.74 2791.58 1338.74 2788.2 1342.44 2782.75 1346.42 2782.75 1346.42 2780.03 1348.19 2779.3 1350.28 2778.61 1352.36 2778.43 1353.5 2778.43 1353.5 2778.43 1353.5 2775.38 1352.93 2772.66 1351.64 2769.93 1350.34 2767.24 1348.92 2766.37 1347.78 2765.5 1346.67 2764.16 1343.67 2764.19 1341.93 2764.19 1340.23 2764.19 1337.63 2763.54 1336.24 2762.85 1334.85 2760.6 1330.9 2759.76 1329.57 2758.96 1328.21 2758.67 1325.5 2758.85 1324.39 2759.04 1323.28 2758.09 1319.9 2757.04 1318.7 2755.95 1317.5 2753.52 1315.6 2750.54 1314.4 2747.52 1313.2 2743.38 1311.43 2741.53 1310.01 2739.68 1308.59 2737.64 1307.32 2736.19 1304.61 2734.74 1301.89 2734.16 1300.62 2733.72 1299.33 2733.29 1298.03 2731.94 1292.56 2731.76 1290.22 2731.58 1287.89 2731.8 1282.04 2731.94 1280.49 2732.09 1278.94 2732.23 1274.8 2731.94 1273.5 2731.69 1272.21 2730.6 1268.45 2728.75 1266.58 2726.93 1264.72 2724.71 1262.38 2719.45 1260.7 2714.18 1259.06 2707.93 1257.26 2707.93 1257.26L2705.5 1256.63C2705.5 1256.63 2721.44 1250.21 2730.27 1247.75 2739.1 1245.28 2763.47 1242.12 2765.72 1239.72 2768.01 1237.35 2766.99 1231.12 2763.69 1224.96 2760.38 1218.76 2764.67 1213.64 2767.68 1212.76 2770.73 1211.87 2773.78 1216.46 2780.68 1217.69 2787.58 1218.92 2792.67 1217.15 2794.48 1214.15 2796.3 1211.15 2795.5 1202.14 2794.88 1195.44 2794.27 1188.74 2794.48 1185.54 2800.55 1183.96 2806.65 1182.38 2812.72 1185.2 2814.97 1181.31 2817.19 1177.42 2830.99 1157.48 2839.92 1152.71 2848.86 1147.93 2895.53 1129.76 2902.03 1124.99 2908.53 1120.21 2907.91 1111.05 2915.03 1105.2 2922.15 1099.39 2954 1081.88 2961.52 1079.06 2969.04 1076.25 2973.29 1072.17 2980.59 1072.52 2987.89 1072.87 2992.36 1072.52 2998.24 1077.99 3004.13 1083.46 3011.82 1090.35 3018.94 1095.81 3026.06 1101.28 3026.86 1102.36 3034.56 1102.36 3042.26 1102.36 3050.58 1103.24 3054.65 1100.43 3058.71 1097.62 3058.71 1094.96 3060.93 1092.12 3063.15 1089.3 3069.43 1083.87 3069.43 1083.87L3069.61 1083.9Z" stroke="#FFFFFF" stroke-width="4.58333" stroke-miterlimit="8" fill="#8FCEC7" fill-rule="evenodd" fill-opacity="0.701961"/><path d="M2705.45 1256.11C2705.45 1256.11 2721.39 1249.7 2730.21 1247.24 2739.04 1244.77 2763.4 1241.62 2765.65 1239.22 2767.93 1236.85 2766.92 1230.63 2763.61 1224.47 2760.31 1218.28 2764.59 1213.17 2767.61 1212.28 2770.66 1211.4 2773.71 1215.98 2780.6 1217.21 2787.5 1218.44 2792.58 1216.67 2794.4 1213.67 2796.21 1210.67 2795.42 1201.67 2794.8 1194.98 2794.18 1188.28 2794.4 1185.1 2800.46 1183.52 2806.56 1181.94 2812.62 1184.75 2814.87 1180.86 2817.09 1176.98 2830.88 1157.06 2839.82 1152.29 2848.75 1147.52 2895.4 1129.36 2901.9 1124.6 2908.39 1119.83 2907.78 1110.67 2914.89 1104.83 2922.01 1099.02 2953.85 1081.52 2961.36 1078.71 2968.88 1075.9 2973.12 1071.83 2980.42 1072.18 2987.72 1072.53 2992.18 1072.18 2998.07 1077.64 3003.95 1083.1 3011.64 1089.99 3018.76 1095.45 3025.87 1100.91 3026.67 1101.99 3034.37 1101.99 3042.07 1101.99 3050.38 1102.87 3054.45 1100.06 3058.51 1097.25 3058.51 1094.6 3060.73 1091.76 3062.94 1088.95 3069.22 1083.51 3069.22 1083.51 3069.22 1083.51 3066.83 1078.75 3066.79 1077.17 3066.79 1075.59 3067.15 1071.14 3069.69 1066.94 3072.23 1062.74 3073.72 1060.72 3075.94 1058.88 3078.15 1057.05 3080.29 1055.19 3081.31 1054.84 3082.33 1054.5 3083.38 1051.69 3081.31 1048.31 3079.24 1044.93 3067.81 1034.22 3062.51 1031.76 3057.24 1029.3 3047.29 1025.41 3039.78 1025.07 3032.26 1024.72 3020.1 1024.37 3016.87 1021.88 3013.64 1019.41 3002.28 1008.65 2998.43 997.342 2994.58 986.038 2990.51 975.112 2987.28 970.186 2984.05 965.26 2975.92 956.261 2972.07 956.261 2968.22 956.261 2958.28 958.913 2954.03 961.913 2949.78 964.913 2942.88 965.26 2940.02 963.839 2937.18 962.418 2929.45 958.029 2922.77 958.029 2916.09 958.029 2908.58 960.145 2904.73 958.029 2900.88 955.914 2895.62 951.682 2895.62 946.567 2895.62 941.452 2896.85 934.758 2892.78 933.684 2888.72 932.61 2883.67 931.758 2878.19 934.568 2872.71 937.378 2864.18 944.262 2858.51 941.104 2852.85 937.915 2846.35 931.758 2839.23 925.221 2832.12 918.685 2823.81 912.528 2815.89 911.801L2807.98 911.107C2807.98 911.107 2797.01 910.917 2790.95 908.802 2784.85 906.686 2786.27 904.918 2775.96 905.802 2765.61 906.686 2760.75 909.149 2754.07 909.149 2747.39 909.149 2738.06 903.149 2730.72 902.265 2723.42 901.381 2716.13 899.613 2706.58 901.034 2697.03 902.455 2679.39 905.107 2670.89 906.496 2662.36 907.917 2658.11 910.191 2649.4 908.612 2640.69 907.033 2637.86 904.034 2631.36 901.918 2624.86 899.802 2611.9 900.15 2604.78 903.149 2597.67 906.149 2568.66 916.19 2559.95 919.38 2551.23 922.569 2547.97 930.495 2537.84 931.726 2527.71 932.958 2517.36 930.653 2512.28 933.147 2507.2 935.642 2498.27 941.799 2489.15 945.493 2480.04 949.188 2467.66 953.956 2464.83 954.84 2462 955.724 2461.78 957.303 2459.75 959.419 2457.71 961.534 2455.5 965.544 2455.5 965.544 2455.5 965.544 2462.51 969.112 2467.26 970.439 2472.02 971.765 2479.21 973.47 2482.58 974.102 2485.96 974.733 2496.34 976.501 2497.87 976.817 2499.39 977.133 2504.33 978.049 2506.94 980.291 2509.56 982.501 2513.62 987.237 2515.66 989.1 2517.69 990.963 2521.61 993.963 2523.43 994.974 2525.24 995.984 2528.83 997.626 2530.79 999.268 2532.76 1000.91 2537.33 1005.93 2538.35 1007.51 2539.36 1009.09 2541.94 1013.7 2542.81 1016.07 2543.68 1018.43 2545.24 1023.68 2545.43 1025.76 2545.61 1027.88 2545.28 1032.64 2545.61 1034.82 2545.93 1037.03 2547.28 1042.97 2548.4 1045.65 2549.53 1048.34 2552.14 1053.93 2554.36 1056.61 2556.53 1059.29 2558.64 1061.76 2561.51 1063.62 2564.34 1065.52 2569.64 1068.45 2572.22 1069.68 2574.8 1070.92 2578.35 1072.59 2579.41 1073.38 2580.5 1074.2 2582.49 1075.62 2581.8 1076.98 2581.11 1078.37 2579.91 1080.32 2576.39 1082.63 2572.87 1084.97 2565.86 1088.95 2564.16 1089.83 2562.42 1090.71 2557.8 1092.8 2555.08 1095.7 2552.36 1098.64 2549.56 1102.18 2548.4 1104.42 2547.24 1106.66 2544.77 1112.75 2544.34 1114.11 2543.9 1115.47 2542.52 1120.46 2542.16 1121.75 2541.83 1123.05 2540.45 1128.76 2540.23 1129.71 2540.02 1130.66 2539.76 1131.95 2539.76 1131.95 2539.76 1131.95 2540.02 1134.07 2539.54 1135.77 2539.07 1137.48 2537.37 1142.25 2536.13 1144.33 2534.93 1146.41 2532.72 1149.82 2531.12 1151.37 2529.52 1152.92 2526.91 1155.35 2526.44 1156.52 2525.97 1157.69 2526.76 1158.22 2527.24 1158.76 2527.75 1159.27 2529.12 1159.87 2529.92 1160.15 2530.72 1160.43 2533.52 1161.22 2534.06 1161.32 2534.61 1161.41 2537.95 1161.82 2540.49 1161.92 2543.03 1162.01 2544.66 1162.11 2545.28 1162.55 2545.9 1162.99 2548.55 1164.92 2548.95 1166.69 2549.35 1168.49 2549.75 1171.68 2546.91 1179.66 2544.08 1187.68 2541.54 1195.83 2541.21 1197.66 2540.85 1199.46 2540.23 1206.44 2540.34 1208.68 2540.45 1210.92 2540.52 1222.04 2540.52 1223.65 2540.52 1225.23 2540.63 1232.65 2541 1235.65 2541.36 1238.62 2542.05 1245.09 2542.34 1247.74 2542.63 1250.4 2543.61 1258.23 2544.08 1260.12 2544.55 1262.02 2546.04 1266.03 2546.44 1266.82 2546.84 1267.6 2548.62 1270.48 2550.07 1271.17 2551.52 1271.87 2553.23 1272.53 2554.83 1272.5 2556.43 1272.5 2559.91 1272.06 2562.6 1271.36 2565.28 1270.67 2572.62 1268.52 2572.62 1268.52 2572.62 1268.52 2578.9 1266.78 2580.46 1266.53 2582.02 1266.28 2585.54 1265.74 2589.83 1266.28 2594.11 1266.78 2600.24 1267.64 2600.93 1267.73 2601.62 1267.83 2610.19 1268.71 2610.19 1268.71 2610.19 1268.71 2613.64 1268.93 2615.13 1268.55 2616.62 1268.17 2617.6 1267.95 2618 1267.26 2618.43 1266.56 2620.57 1262.9 2621.23 1261.98 2621.88 1261.07 2624.39 1258.04 2625.88 1256.81 2627.4 1255.57 2630.78 1253.11 2633.17 1252.01 2635.57 1250.9 2640.76 1248.75 2643.16 1248.12 2645.55 1247.49 2649.8 1246.73 2651.07 1246.64 2652.34 1246.54 2657.24 1246.48 2660.18 1246.83 2663.12 1247.17 2673.58 1248.97 2673.58 1248.97 2673.58 1248.97 2683.6 1251.09 2684.51 1251.31 2685.41 1251.53 2693.58 1253.4 2693.58 1253.4L2700.48 1254.82 2705.42 1255.89" stroke="#FFFFFF" stroke-width="4.58333" stroke-miterlimit="8" fill="#8FCEC7" fill-rule="evenodd" fill-opacity="0.701961"/><path d="M2930.51 1728.48C2925.35 1720.27 2912.57 1704.4 2912.86 1697.27 2913.15 1690.14 2919.54 1686.41 2920.16 1682.47 2920.77 1678.49 2918.92 1660.26 2922.88 1655.77 2926.84 1651.29 2929.56 1643.34 2928.65 1638.32 2927.75 1633.31 2923.17 1614.79 2924.08 1606.08 2924.99 1597.34 2929.56 1591.78 2928.04 1586.76 2926.51 1581.75 2919.83 1577.52 2910.68 1577.23 2901.56 1576.98 2887.26 1579.6 2881.77 1577.77 2876.29 1575.91 2869.9 1573.54 2869.9 1566.92 2869.9 1560.29 2874.77 1552.62 2875.67 1547.35 2876.58 1542.05 2870.81 1538.61 2856.21 1537.03 2841.61 1535.46 2805.99 1532.81 2802.65 1527.25 2799.31 1521.7 2790.48 1510.59 2788.63 1500.02 2786.81 1489.45 2783.47 1472.25 2780.42 1462.47 2777.37 1452.69 2772.22 1449 2768.26 1444.48 2764.3 1440 2764.3 1428.36 2764.01 1424.38 2764.01 1424.38 2743.06 1422.4 2738.59 1424.38 2734.12 1426.37 2732.31 1429.21 2736.38 1436.09 2740.44 1442.97 2741.64 1450.73 2736.16 1454.08 2730.67 1457.42 2719.93 1460.61 2707.36 1464.3 2694.8 1467.99 2682.2 1474.33 2681.18 1478.75 2680.16 1483.17 2697.41 1489.67 2696.79 1496.55 2696.18 1503.43 2677.51 1508.54 2671.45 1511.35 2665.35 1514.16 2637.35 1535.33 2629.03 1543.25 2620.72 1551.17 2611.79 1562.47 2604.7 1563.16 2597.62 1563.86 2588.25 1559.63 2583.82 1559.09 2579.36 1558.55 2575.51 1562.97 2566.18 1566.51 2556.84 1570.04 2545.88 1573.2 2541.85 1570.73 2537.82 1568.27 2540.21 1562.28 2541.85 1559.09 2543.48 1555.9 2539.81 1548.52 2532.51 1545.33 2525.21 1542.15 2518.71 1538.99 2521.15 1532.3 2523.58 1525.61 2535.35 1521.38 2532.11 1510.78 2528.88 1500.21 2519.95 1496.33 2509.38 1500.56 2498.82 1504.79 2492.53 1508.67 2482 1509.55 2471.44 1510.43 2472.27 1507.25 2469.62 1501.98 2466.97 1496.68 2467.59 1494.56 2457.45 1495.98 2447.32 1497.4 2446.09 1497.05 2441 1493.17 2435.92 1489.29 2431.89 1481.37 2424.99 1474.3 2418.09 1467.27 2417.07 1463.2 2408.98 1463.01 2400.88 1462.82 2387.88 1464.24 2386.06 1466.7 2384.25 1469.16 2387.08 1484.5 2390.93 1487.49 2394.78 1490.49 2398.45 1500.37 2398.45 1504.94 2398.45 1509.52 2400.66 1513.4 2403.53 1517.63 2406.36 1521.86 2396.63 1520.81 2406.36 1531.73 2416.09 1542.65 2422.59 1542.3 2422.59 1548.3 2422.59 1554.29 2429.09 1555.53 2425.83 1561.87 2422.59 1568.21 2419.73 1570.04 2423.39 1575.91 2427.06 1581.78 2427.86 1585.5 2424.81 1589.73 2421.76 1593.96 2416.28 1593.42 2415.26 1601.03 2414.24 1608.6 2414.24 1615.83 2413.23 1619.55 2412.21 1623.24 2413.01 1628.73 2407.74 1628.89 2402.48 1629.08 2403.06 1631.19 2406.51 1635.77 2409.96 1640.34 2422.52 1650.76 2422.12 1656.75 2421.72 1662.75 2419.07 1667.67 2423.54 1674.55 2428 1681.43 2428.62 1683.2 2424.16 1687.08 2419.69 1690.96 2418.89 1694.11 2421.1 1697.11 2423.32 1700.11 2426.37 1702.41 2425.57 1706.45 2424.77 1710.52 2425.17 1715.79 2429.24 1718.98 2433.31 1722.17 2432.47 1735.89 2438.79 1736.97 2445.07 1738.04 2448.74 1741.19 2450.34 1745.07 2451.97 1748.96 2452.15 1752.65 2456 1754.41 2459.85 1756.18 2460.69 1756.88 2462.28 1762.52 2463.88 1768.17 2467.55 1774.33 2471.83 1779.97 2476.08 1785.62 2489.7 1799.89 2496.6 1803.77 2503.5 1807.65 2516.68 1809.41 2520.53 1809.23 2524.38 1809.04 2530.66 1810.65 2534.11 1814.87 2537.56 1819.1 2548.53 1823.68 2548.53 1823.68 2548.53 1823.68 2564.54 1833.55 2570.64 1838.32 2576.74 1843.08 2578.34 1854.54 2586.26 1860.19 2594.17 1865.83 2599.66 1864.26 2602.09 1865.3 2604.52 1866.37 2606.56 1871.64 2606.34 1874.1 2606.12 1876.56 2604.7 1882.75 2611.6 1888.74 2618.5 1894.74 2624.79 1890.16 2624.39 1895.97 2623.99 1901.78 2615.05 1905.31 2621.55 1911.65 2628.05 1917.99 2632.92 1923.45 2633.32 1925.95 2633.72 1928.41 2642.03 1934.4 2644.47 1937.24 2646.9 1940.05 2650.35 1948.16 2647.52 1951 2644.69 1953.81 2644.29 1958.57 2647.12 1961.57 2649.95 1964.57 2650.17 1974.79 2650.17 1979.21 2650.17 1983.63 2652.78 1989.09 2657.98 1992.43 2663.17 1995.78 2669.16 1999.31 2670.32 2002.12 2671.48 2004.93 2676.57 2018.59 2679 2023.04 2681.43 2027.49 2688.33 2038.6 2688.33 2038.6L2692 2041.5C2692 2041.5 2693.93 2037.59 2700.03 2033.3 2706.09 2029 2711.07 2024.97 2714.26 2024.15 2717.46 2023.32 2716.51 2020.58 2717.02 2018.12 2717.53 2015.66 2718.62 2010.67 2718.91 2008.46 2719.2 2006.22 2719.67 2001.99 2718.69 1999.88 2717.71 1997.77 2715.02 1992.75 2714.48 1990.92 2713.97 1989.12 2713.06 1984.04 2711.94 1981.92 2710.81 1979.81 2707.72 1975.08 2706.34 1974.13 2704.96 1973.18 2704.82 1972.62 2698.43 1972.74 2692.04 1972.87 2685.25 1973.25 2681.62 1972.4 2677.98 1971.54 2674.32 1969.56 2673.05 1967.5 2671.77 1965.45 2671.63 1960.4 2671.88 1957.69 2672.14 1954.98 2673.19 1946.65 2673.23 1944.82 2673.26 1942.99 2673.34 1941.28 2672.43 1939.23 2671.52 1937.18 2670.1 1933.93 2670.36 1933.24 2670.61 1932.57 2672.07 1931.03 2673.84 1931.25 2675.62 1931.47 2678.71 1932.57 2680.27 1932.86 2681.83 1933.11 2684.99 1933.52 2689.86 1930.9 2694.72 1928.28 2699.48 1925.51 2699.48 1925.51 2699.48 1925.51 2703.77 1922.92 2705.26 1923.11 2706.74 1923.3 2714.01 1926.23 2715.6 1926.58 2717.17 1926.92 2722.5 1927.78 2724.14 1925.82 2725.77 1923.86 2730.13 1916.92 2732.09 1913.32 2734.05 1909.76 2734.38 1906.51 2734.05 1905.66 2733.72 1904.81 2730.02 1900.48 2728.57 1898.75 2727.12 1897.01 2725.12 1893.54 2724.79 1892.28 2724.47 1891.02 2725.41 1888.93 2726.5 1887.39 2727.55 1885.84 2731.18 1881.14 2732.05 1879.28 2732.93 1877.38 2734.49 1874.95 2732.49 1872.05 2730.49 1869.15 2728.24 1866.4 2726.03 1865.42 2723.81 1864.45 2720.98 1863.91 2718.65 1863.44 2716.33 1862.96 2714.81 1861.83 2713.03 1862.71 2711.25 1863.59 2711.25 1865.3 2705.15 1865.2 2699.08 1865.08 2692.84 1864.6 2690.73 1864.83 2688.62 1865.05 2683.1 1865.61 2680.6 1868.61 2678.09 1871.61 2675.95 1875.27 2674.97 1878.74 2673.99 1882.21 2673.12 1885.59 2672.76 1888.08 2672.39 1890.57 2672.61 1893.04 2671.45 1896 2670.29 1898.97 2668.47 1902.79 2666.91 1904.49 2665.35 1906.16 2663.97 1907.99 2661.72 1908.24 2659.46 1908.5 2656.38 1908.69 2654.31 1907.14 2652.27 1905.59 2650.79 1903.13 2649.77 1902.09 2648.75 1901.02 2644.94 1897.77 2643.01 1896.35 2641.09 1894.93 2638.26 1892.91 2636.91 1891.68 2635.57 1890.45 2631.5 1886.06 2630.01 1884.04 2628.49 1882.02 2625.58 1877.95 2624.97 1876.59 2624.35 1875.24 2624.02 1870.19 2624.06 1868.61 2624.1 1867.03 2624.82 1859.05 2625.15 1857.63 2625.48 1856.21 2626.31 1853.75 2626.75 1851.57 2627.18 1849.39 2627.62 1844.76 2627.11 1843.08 2626.56 1841.41 2625.84 1839.83 2624.2 1839.55 2622.57 1839.3 2619.05 1839.33 2615.42 1839.39 2611.79 1839.46 2609.32 1838.63 2608.66 1838.13 2608.01 1837.62 2606.52 1836.55 2607.61 1834 2608.7 1831.44 2610.51 1827.27 2611.82 1826.08 2613.17 1824.91 2617.56 1821.85 2620.06 1820.65 2622.57 1819.45 2627.25 1817.4 2629.22 1816.77 2631.18 1816.1 2636.44 1814.78 2639.93 1812.63 2643.41 1810.46 2650.71 1805.44 2654.38 1802.13 2658.05 1798.81 2660.48 1796.79 2661.1 1793.01 2661.72 1789.22 2661.24 1787.74 2661.14 1786.25 2661.03 1784.77 2660.55 1776.82 2660.77 1774.89 2660.99 1772.97 2661.43 1768.39 2663.5 1765.96 2665.57 1763.53 2668.4 1760.98 2670.14 1760.54 2671.88 1760.09 2673.95 1759.65 2675.91 1760.69 2677.84 1761.77 2680.82 1763.69 2682.67 1766.59 2684.52 1769.5 2686.19 1773.03 2686.77 1774.89 2687.32 1776.72 2688.33 1781.05 2689.21 1782.06 2690.08 1783.07 2691.02 1784.17 2694.36 1783.04 2697.7 1781.87 2700.97 1779.53 2701.88 1779.03 2702.75 1778.49 2704.53 1776.85 2708.38 1777.32 2712.23 1777.83 2721.38 1779.03 2722.94 1779.12 2724.5 1779.22 2728.5 1779.5 2731.33 1777.86 2734.16 1776.22 2739.14 1772.59 2740.44 1771.99 2741.71 1771.39 2744.26 1770.35 2746.04 1770.76 2747.85 1771.2 2749.19 1771.58 2750.43 1772.56 2751.66 1773.54 2753.88 1775.87 2753.88 1775.87L2755.26 1777.8C2755.26 1777.8 2755.91 1778.02 2756.42 1778.59 2756.93 1779.15 2758.96 1781.96 2758.96 1781.96 2758.96 1781.96 2761 1785.56 2761.18 1785.94 2761.36 1786.32 2762.05 1788.4 2762.3 1789.13 2762.56 1789.85 2764.81 1794.96 2765.17 1795.63 2765.54 1796.29 2767.93 1800.64 2768.22 1801.12 2768.51 1801.56 2770.84 1805.06 2771.35 1805.69 2771.89 1806.32 2773.2 1808.12 2775.34 1808.72 2777.48 1809.32 2778.43 1809.92 2779.7 1810.17 2780.97 1810.42 2783.33 1810.87 2784.6 1810.49 2785.87 1810.11 2788.7 1808.22 2789.72 1807.43 2790.74 1806.67 2796.15 1802.47 2796.62 1802.09 2797.09 1801.72 2803.63 1796.57 2804.32 1796.04 2805.01 1795.5 2814.63 1787.96 2815.25 1787.48 2815.87 1787.01 2823.56 1781.17 2824.11 1780.79 2824.65 1780.42 2828.5 1777.8 2831.19 1776.69 2833.88 1775.59 2842.08 1772.75 2843.65 1772.02 2845.21 1771.3 2848.58 1769.47 2850.36 1767.73 2852.14 1766 2855.45 1762.27 2855.92 1762.05 2856.39 1761.83 2857.84 1761.1 2861.47 1760.95 2865.11 1760.76 2871.1 1760.63 2872.44 1760.57 2873.75 1760.51 2877.42 1760.35 2879.67 1759.65 2881.96 1758.96 2886.31 1757.25 2887.47 1756.84 2888.64 1756.43 2891.25 1755.61 2892.49 1755.8 2893.72 1755.99 2896.99 1756.94 2898.19 1757.41 2899.39 1757.89 2903.49 1759.53 2904.4 1759.84 2905.27 1760.16 2908.68 1761.14 2909.26 1761.23 2909.88 1761.33 2911.73 1761.48 2913 1761.01 2914.27 1760.54 2917.65 1758.99 2921.68 1756.15 2925.75 1753.34 2928 1751.73 2929.23 1751.26 2930.47 1750.82 2936.53 1748.99 2937.77 1748.64 2939 1748.32 2943.22 1747.22 2943.22 1747.22L2947.5 1747.22C2947.5 1747.22 2940.82 1740.53 2940.17 1739.87 2939.51 1739.21 2934.94 1734.19 2934.03 1733.05 2933.12 1731.92 2930.69 1728.45 2930.69 1728.45L2930.51 1728.48Z" stroke="#FFFFFF" stroke-width="4.58333" stroke-miterlimit="8" fill="#8FCEC7" fill-rule="evenodd" fill-opacity="0.701961"/><path d="M2763.53 1424.14C2763.53 1424.14 2742.61 1422.15 2738.15 1424.14 2733.7 1426.13 2731.88 1428.97 2735.94 1435.86 2740 1442.74 2741.2 1450.51 2735.72 1453.86 2730.25 1457.21 2719.52 1460.4 2706.98 1464.09 2694.44 1467.79 2681.86 1474.14 2680.85 1478.56 2679.83 1482.98 2697.05 1489.49 2696.43 1496.37 2695.82 1503.26 2677.19 1508.37 2671.13 1511.18 2665.04 1514 2637.1 1535.19 2628.79 1543.12 2620.49 1551.04 2611.58 1562.35 2604.51 1563.04 2597.44 1563.74 2588.09 1559.51 2583.67 1558.97 2579.21 1558.43 2575.37 1562.86 2566.05 1566.39 2556.73 1569.93 2545.79 1573.09 2541.76 1570.62 2537.74 1568.16 2540.13 1562.16 2541.76 1558.97 2543.4 1555.78 2539.73 1548.39 2532.45 1545.2 2525.16 1542.01 2518.68 1538.85 2521.1 1532.16 2523.53 1525.46 2535.28 1521.23 2532.05 1510.62 2528.82 1500.04 2519.91 1496.15 2509.36 1500.38 2498.81 1504.61 2492.54 1508.5 2482.03 1509.38 2471.48 1510.27 2472.31 1507.08 2469.67 1501.8 2467.02 1496.5 2467.64 1494.38 2457.53 1495.8 2447.41 1497.22 2446.18 1496.88 2441.11 1492.99 2436.03 1489.11 2432.01 1481.18 2425.12 1474.1 2418.23 1467.06 2417.22 1462.99 2409.14 1462.8 2401.05 1462.61 2388.08 1464.03 2386.26 1466.49 2386.26 1466.49 2366.62 1441.07 2364.99 1437.03 2363.35 1432.95 2356.29 1420.98 2349.18 1414.6 2342.08 1408.25 2327.72 1388.67 2320.62 1385.83 2313.51 1383.02 2304.42 1385.29 2300.36 1382.83 2296.3 1380.36 2292.45 1371.52 2287.6 1371.36 2282.74 1371.21 2280.49 1374.17 2274.44 1372.78 2268.35 1371.36 2255.01 1348.97 2252.36 1344.36 2249.72 1339.75 2246.09 1337.82 2248.92 1333.78 2251.75 1329.7 2256.82 1326.01 2263.49 1326.89 2270.16 1327.78 2275.45 1330.59 2279.08 1328.31 2282.74 1326.01 2283.76 1320.2 2290.82 1319.66 2297.93 1319.12 2298.73 1319.12 2306.81 1319.66 2314.89 1320.2 2321.78 1317.73 2322 1311.01 2322.21 1304.31 2321.78 1291.58 2323.81 1280.84 2325.84 1270.07 2326.45 1260.92 2327.87 1257.03 2329.28 1253.15 2331.31 1245.91 2326.06 1244.14 2320.8 1242.38 2314.93 1242.38 2313.08 1237.45 2311.27 1232.52 2311.85 1216.98 2302.97 1210.79 2294.05 1204.6 2285.53 1202.86 2284.95 1198.25 2284.33 1193.67 2279.7 1186.25 2275.13 1180.69 2270.56 1175.13 2262.08 1171.94 2255.37 1171.44 2248.7 1170.9 2247.94 1163.76 2247.87 1160.32 2247.8 1156.88 2241.09 1153.97 2244.14 1148.13 2247.18 1142.32 2252.65 1134.64 2253.23 1131.99 2253.85 1129.34 2252.26 1115.57 2243.34 1115.06 2234.42 1114.53 2227.43 1111.37 2226.81 1105.52 2226.19 1099.71 2229.24 1091.5 2229.53 1082.75 2229.82 1074 2230.15 1066.61 2224.38 1062.63 2218.62 1058.65 2205.24 1060.52 2204.63 1056.54 2204.01 1052.56 2205.53 1049.65 2211.62 1048.61 2217.71 1047.54 2224.09 1049.68 2232.57 1047.03 2241.09 1044.38 2244.1 1038.82 2250.19 1037.78 2256.28 1036.7 2263.24 1038.85 2266.9 1042.55 2270.56 1046.24 2279.95 1053.41 2288.47 1050.76 2296.99 1048.1 2301.23 1040.97 2309.74 1040.43 2318.26 1039.89 2322.21 1042.29 2322.21 1047.31 2322.21 1052.34 2325.55 1069.3 2330.73 1072.46 2335.88 1075.65 2344.72 1074.32 2352.01 1075.9 2359.29 1077.48 2362.34 1081.99 2363.54 1086.76 2364.77 1091.53 2369.92 1093.4 2371.73 1095.76 2373.54 1098.13 2368.07 1106.34 2373.54 1109 2379.01 1111.65 2386.3 1106.34 2390.54 1102.65 2394.78 1098.95 2400.58 1096.3 2404.53 1101.32 2408.48 1106.34 2413.63 1117.75 2415.15 1108.46 2416.67 1099.21 2412.11 1092.57 2416.38 1093.11 2420.63 1093.65 2430.96 1095.76 2432.48 1101.86 2434 1107.96 2444.01 1115.88 2447.67 1115.88 2451.33 1115.88 2456.76 1124.88 2459.81 1125.67 2462.85 1126.46 2479.38 1125.42 2484.02 1125.42 2488.66 1125.42 2503.85 1123.56 2506.6 1123.56 2509.36 1123.56 2519.98 1122.48 2524.22 1124.09 2528.46 1125.67 2539.12 1128.58 2540.02 1132.56 2540.93 1136.54 2536.69 1145.79 2532.74 1150.56 2528.79 1155.33 2522.41 1157.98 2530.6 1160.89 2538.79 1163.8 2544.27 1161.43 2546.4 1163.8 2548.54 1166.16 2551.88 1166.99 2547.64 1179.15 2543.4 1191.34 2540.02 1199.26 2540.64 1209.31 2541.26 1219.35 2540.35 1229.68 2541.26 1235.77 2542.16 1241.87 2543.4 1259.08 2545.21 1263.57 2547.02 1268.05 2548.54 1275.22 2560.4 1272.57 2572.25 1269.92 2574.97 1267.8 2583.49 1266.76 2592 1265.68 2615.67 1272.57 2618.43 1267.55 2621.15 1262.53 2624.81 1256.43 2634.85 1251.95 2644.89 1247.46 2651.56 1246.64 2659.75 1247.46 2667.94 1248.25 2681.32 1251.16 2687.7 1252.77 2694.08 1254.35 2703.79 1255.96 2708.97 1257.54 2714.12 1259.11 2722.97 1260.98 2726.88 1264.67 2730.83 1268.37 2732.97 1271.81 2731.74 1281.35 2730.51 1290.89 2733.26 1302.8 2738.73 1307.82 2744.21 1312.84 2749.97 1313.63 2753.92 1316.03 2757.87 1318.4 2758.78 1321.59 2758.78 1325.82 2758.78 1330.05 2762.33 1333.24 2763.6 1336.68 2764.87 1340.13 2763.06 1341.71 2765.16 1346.22 2767.3 1350.71 2778.24 1353.58 2778.24 1353.42 2778.24 1353.27 2778.53 1358.92 2778.5 1360.44 2778.5 1361.98 2778.53 1364.48 2775.16 1367.1 2771.75 1369.72 2767.99 1372.37 2767.3 1374.27 2766.61 1376.16 2765.34 1384.25 2765.23 1385.51 2765.12 1386.78 2764.43 1395.97 2764.32 1397.77 2764.22 1399.54 2763.85 1408.44 2763.85 1408.44L2763.64 1417.25 2763.64 1424.2 2763.53 1424.14Z" stroke="#FFFFFF" stroke-width="4.58333" stroke-miterlimit="8" fill="#8FCEC7" fill-rule="evenodd" fill-opacity="0.701961"/><path d="M2248.98 1333.5C2251.81 1329.43 2256.89 1325.73 2263.57 1326.61 2270.24 1327.5 2275.54 1330.31 2279.17 1328.04 2282.84 1325.73 2283.85 1319.92 2290.93 1319.38 2298.04 1318.84 2298.84 1318.84 2306.93 1319.38 2315.02 1319.92 2321.92 1317.46 2322.14 1310.73 2322.35 1304.03 2321.92 1291.3 2323.95 1280.56 2325.98 1269.79 2326.6 1260.63 2328.02 1256.75 2329.43 1252.87 2331.46 1245.63 2326.2 1243.86 2320.94 1242.09 2315.06 1242.09 2313.21 1237.17 2311.4 1232.24 2311.98 1216.7 2303.09 1210.51 2294.16 1204.32 2285.63 1202.58 2285.05 1197.97 2284.43 1193.39 2279.79 1185.97 2275.22 1180.41 2270.64 1174.85 2262.15 1171.66 2255.44 1171.16 2248.76 1170.62 2248 1163.48 2247.93 1160.04 2247.85 1156.6 2241.14 1153.69 2244.19 1147.85 2247.24 1142.04 2252.72 1134.36 2253.3 1131.71 2253.92 1129.05 2252.32 1115.28 2243.39 1114.78 2234.46 1114.24 2227.46 1111.08 2226.84 1105.24 2226.23 1099.43 2229.28 1091.22 2229.57 1082.47 2229.86 1073.72 2230.18 1066.33 2224.41 1062.35 2218.64 1058.37 2205.25 1060.23 2204.64 1056.25 2204.02 1052.27 2205.54 1049.37 2211.64 1048.32 2217.74 1047.25 2224.12 1049.4 2232.61 1046.75 2241.14 1044.09 2244.15 1038.53 2250.25 1037.49 2256.35 1036.42 2263.31 1038.57 2266.98 1042.26 2270.64 1045.96 2280.04 1053.13 2288.57 1050.47 2297.1 1047.82 2301.34 1040.68 2309.87 1040.14 2318.4 1039.61 2322.35 1042.01 2322.35 1047.03 2322.35 1052.05 2325.69 1069.01 2330.88 1072.17 2336.04 1075.36 2344.89 1074.03 2352.18 1075.61 2359.48 1077.19 2362.53 1081.71 2363.72 1086.48 2364.96 1091.25 2370.11 1093.11 2371.92 1095.48 2373.74 1097.85 2368.26 1106.06 2373.74 1108.71 2379.22 1111.37 2386.51 1106.06 2390.76 1102.37 2395 1098.67 2400.81 1096.02 2404.77 1101.04 2408.72 1106.06 2413.87 1117.46 2415.4 1108.18 2416.92 1098.92 2412.35 1092.29 2416.63 1092.83 2420.88 1093.36 2431.22 1095.48 2432.74 1101.58 2434.27 1107.67 2444.28 1115.6 2447.95 1115.6 2451.61 1115.6 2457.06 1124.6 2460.1 1125.39 2463.15 1126.18 2479.7 1125.14 2484.35 1125.14 2488.99 1125.14 2504.2 1123.27 2506.95 1123.27 2509.71 1123.27 2520.34 1122.2 2524.59 1123.81 2528.83 1125.39 2539.5 1128.3 2540.41 1132.28 2540.41 1132.28 2543.13 1119.04 2546.18 1110.83 2549.23 1102.62 2555 1094.94 2562 1091.5 2569.01 1088.06 2583.88 1080.13 2582.4 1076.15 2580.87 1072.17 2569.91 1070.05 2560.51 1062.66 2551.08 1055.24 2545.31 1038.85 2546.22 1030.38 2547.12 1021.92 2540.12 1003.38 2527.96 997.284 2515.81 991.189 2514.57 986.419 2509.09 981.682 2503.61 976.912 2500.89 977.702 2482.93 974.259 2465 970.817 2457.09 966.837 2454.04 964.216 2451 961.562 2441.27 958.657 2434.59 960.52 2427.92 962.384 2418.48 967.658 2415.72 965.005 2413 962.352 2411.48 957.33 2406 953.887 2400.52 950.445 2393.84 947.792 2391.08 948.866 2388.36 949.939 2388.04 955.751 2379.55 954.677 2371.02 953.603 2346.09 951.234 2339.7 945.423 2333.31 939.611 2324.79 925.051 2326.02 913.649 2327.25 902.247 2329.98 896.972 2329.98 890.877 2329.98 884.781 2326.02 879.506 2321.77 881.086 2317.53 882.665 2309 890.624 2304.76 890.877 2300.51 891.129 2296.23 897.225 2293.22 902.247 2290.17 907.269 2291.69 912.291 2281.06 912.291 2270.43 912.291 2260.08 909.922 2249.42 906.479 2238.78 903.037 2228.44 902.784 2220.2 902.784 2211.97 902.784 2195.89 907.016 2184.31 903.574 2172.77 900.131 2167.88 894.572 2164.86 888.476 2161.82 882.381 2151.8 871.547 2145.41 867.315 2139.03 863.083 2140.55 861.219 2118.63 859.387 2096.75 857.523 2081.84 859.135 2074.83 859.387 2067.83 859.64 2067.54 861.756 2058.1 864.409 2048.67 867.062 2045.62 865.483 2033.17 861.219 2020.69 856.987 2010.35 860.966 2009.15 861.472 2007.92 862.009 2005.2 880.801 2005.2 886.897 2005.2 892.993 2001.24 903.321 1996.38 911.249 1991.51 919.176 1987.56 926.062 1982.7 933.737 1977.83 941.412 1974.79 947.507 1977.54 948.044 1980.27 948.581 1984.84 938.506 1988.18 939.296 1991.51 940.085 1994.85 946.434 2001.57 947.223 2008.24 948.013 2013.43 945.644 2021.02 946.686 2028.64 947.76 2038.94 950.129 2039.27 954.614 2039.56 959.099 2041.99 965.195 2049.32 970.217 2056.62 975.239 2057.23 971.543 2057.23 981.082 2057.23 990.62 2057.23 1003.32 2073.05 1018.67 2088.88 1034.02 2107.13 1062.6 2108.33 1064.21 2109.56 1065.79 2113.19 1075.87 2119.87 1083.26 2126.54 1090.68 2122.3 1098.35 2128.97 1106.03 2135.65 1113.7 2139.93 1111.84 2145.09 1120.84 2150.24 1129.84 2152.71 1140.71 2154.2 1142.83 2155.72 1144.94 2166.06 1147.31 2168.49 1150.75 2170.92 1154.2 2170.92 1166.36 2170.63 1167.97 2170.34 1169.55 2170.63 1169.55 2177.64 1176.43 2184.64 1183.32 2191.03 1187.3 2187.36 1192.32 2183.7 1197.34 2182.79 1203.18 2188.6 1207.42 2194.37 1211.65 2198.32 1207.16 2202.28 1215.63 2206.23 1224.09 2217.19 1236 2218.39 1240.23 2219.62 1244.46 2224.78 1250.02 2227.82 1256.66 2230.87 1263.29 2239.69 1274.41 2241.5 1276.52 2243.32 1278.64 2247.6 1279.43 2247.27 1286.06 2246.98 1292.69 2238.75 1302.99 2235.73 1306.43 2232.69 1309.87 2230.87 1313.07 2233.59 1317.8 2236.32 1322.57 2241.79 1329.99 2243.03 1331.29 2244.26 1332.62 2249.02 1333.5 2249.02 1333.5L2248.98 1333.5Z" stroke="#FFFFFF" stroke-width="4.58333" stroke-miterlimit="8" fill="#8FCEC7" fill-rule="evenodd" fill-opacity="0.701961"/><path d="M2453.28 964.979C2450.23 962.327 2440.51 959.422 2433.84 961.285 2427.16 963.148 2417.73 968.421 2414.97 965.769 2412.25 963.116 2410.73 958.096 2405.25 954.654 2399.77 951.213 2393.09 948.561 2390.34 949.634 2387.62 950.708 2387.29 956.517 2378.8 955.444 2370.27 954.37 2345.35 952.002 2338.97 946.193 2332.58 940.383 2324.06 925.827 2325.29 914.429 2326.52 903.062 2329.24 897.758 2329.24 891.664 2329.24 885.57 2325.29 880.297 2321.04 881.876 2316.8 883.455 2308.27 891.411 2304.03 891.664 2299.78 891.917 2295.5 898.01 2292.49 903.031 2289.45 908.051 2290.97 913.071 2280.34 913.071 2269.71 913.071 2259.37 910.703 2248.7 907.262 2238.07 903.82 2227.73 903.567 2219.5 903.567 2211.26 903.567 2195.19 907.798 2183.62 904.357 2172.08 900.915 2167.18 895.358 2164.17 889.264 2161.13 883.171 2151.11 872.341 2144.73 868.11 2138.34 863.879 2139.87 862.016 2117.95 860.184 2096.08 858.322 2081.17 859.932 2074.17 860.184 2067.16 860.437 2066.87 862.553 2057.44 865.205 2048.01 867.857 2044.96 866.278 2032.52 862.016 2020.04 857.785 2009.7 861.763 2008.5 862.269 2008.5 862.269 2019.75 841.619 2021.23 835.273 2022.76 828.926 2020 826.526 2021.52 820.464 2023.05 814.37 2023.66 810.424 2032.48 812.539 2041.3 814.655 2061.98 821.538 2072.61 823.116 2083.23 824.695 2115.78 833.441 2127.64 834.483 2139.5 835.557 2139.79 837.672 2146.8 834.736 2153.8 831.831 2197.59 808.813 2201.54 801.393 2205.5 793.974 2212.17 779.165 2217.65 773.356 2223.13 767.546 2227.7 767.799 2237.42 767.799 2247.14 767.799 2288.5 765.146 2296.41 763.315 2304.32 761.452 2311 755.39 2314.33 748.759 2317.67 742.129 2314.62 733.667 2328.63 725.994 2342.63 718.322 2351.12 718.069 2353.26 713.301 2355.4 708.534 2355.98 700.861 2350.54 694.515 2345.06 688.168 2317.09 667.803 2311 658.268 2304.9 648.732 2278.78 618.295 2275.41 613.811 2272.07 609.328 2268.73 600.329 2270.25 598.213 2271.78 596.098 2318.29 588.678 2335.34 585.521 2352.35 582.332 2363.93 580.753 2367.55 579.711 2371.22 578.638 2376.66 581.826 2373.65 585.521 2370.6 589.215 2358.16 608.822 2357.54 613.306 2356.92 617.789 2352.06 633.419 2358.77 637.397 2365.45 641.375 2376.7 649.837 2378.55 653.532 2380.36 657.226 2380.98 671.529 2390.41 670.992 2399.84 670.455 2467.65 669.666 2478.57 669.666 2489.49 669.666 2509.59 670.203 2517.5 671.529 2525.4 672.855 2543.94 679.201 2553.99 679.738 2564.04 680.275 2567.67 678.159 2571.62 680.812 2575.58 683.464 2585.63 694.294 2597.16 696.946 2608.7 699.598 2649.48 696.946 2661.63 698.019 2673.79 699.093 2681.69 702.503 2688.7 706.229 2695.7 709.923 2692.36 715.227 2702.99 719.206 2713.62 723.184 2723.05 721.574 2729.44 722.395 2735.82 723.184 2743.73 720.816 2747.69 726.878 2751.64 732.972 2750.41 741.687 2754.36 748.57 2758.32 755.453 2771.38 757.032 2777.76 760.473 2784.15 763.915 2786.29 769.472 2782.91 773.04 2779.58 776.608 2738.22 801.741 2723.92 807.582 2709.63 813.391 2676.8 825.042 2669.18 831.926 2661.56 838.809 2652.45 837.735 2650.93 846.229 2649.41 854.691 2653.36 872.151 2649.7 878.498 2646.03 884.844 2641.17 893.306 2636.02 895.421 2630.87 897.537 2619 901.515 2619 901.515 2619 901.515 2615.23 901.61 2612.08 902.241 2608.92 902.873 2601.81 904.925 2597.27 907.104 2592.74 909.282 2579.13 913.64 2579.13 913.64L2566.91 917.965C2566.91 917.965 2559.54 920.396 2557.69 921.47 2555.84 922.544 2551.27 926.017 2549.82 927.122 2548.41 928.259 2544.71 931.132 2541.95 931.858 2539.19 932.584 2536.9 933.247 2527.91 933.121 2518.91 932.995 2515.68 932.363 2511.76 934.542 2507.85 936.72 2501.17 940.667 2499.14 941.772 2497.14 942.846 2491.96 945.498 2488.69 946.792 2485.42 948.087 2476.72 951.529 2475.45 952.034 2474.18 952.508 2468.41 954.749 2466.52 955.381 2464.64 956.012 2463.15 956.517 2462.24 957.654 2461.34 958.822 2459.41 961.032 2458.9 961.696 2458.4 962.359 2456.58 965.137 2456.58 965.137L2455.53 966.463 2453.32 965.042 2453.28 964.979Z" stroke="#FFFFFF" stroke-width="4.58333" stroke-miterlimit="8" fill="#8FCEC7" fill-rule="evenodd" fill-opacity="0.701961"/><path d="M2373.9 584.79C2370.85 588.487 2358.4 608.11 2357.78 612.597 2357.16 617.084 2352.3 632.725 2359.01 636.707 2365.69 640.688 2376.95 649.157 2378.8 652.854 2380.61 656.55 2381.23 670.865 2390.67 670.328 2400.11 669.79 2467.95 669 2478.88 669 2489.81 669 2509.92 669.538 2517.83 670.865 2525.74 672.192 2544.29 678.543 2554.35 679.08 2564.4 679.618 2568.03 677.5 2571.99 680.155 2575.95 682.809 2586 693.647 2597.55 696.302 2609.09 698.956 2649.89 696.302 2662.05 697.376 2674.21 698.45 2682.13 701.863 2689.13 705.592 2696.14 709.32 2692.8 714.597 2703.44 718.579 2714.07 722.56 2723.51 720.949 2729.9 721.77 2736.29 722.56 2744.2 720.19 2748.16 726.257 2752.12 732.356 2750.88 741.077 2754.84 747.965 2758.8 754.854 2771.86 756.434 2778.25 759.878 2784.64 763.322 2786.78 768.884 2783.41 772.454 2780.07 776.025 2738.68 801.178 2724.38 807.023 2710.08 812.838 2677.23 824.497 2669.6 831.386 2661.98 838.274 2652.87 837.2 2651.34 845.7 2649.82 854.169 2653.78 871.642 2650.11 877.994 2646.44 884.345 2641.58 892.814 2636.42 894.931 2636.42 894.931 2628.87 897.775 2627.86 898.154 2626.84 898.501 2621.07 900.492 2621.07 900.492L2619.44 901.029C2619.44 901.029 2624.34 901.029 2626.66 901.377 2628.98 901.724 2632.87 902.736 2633.67 903.052 2634.46 903.368 2639.22 905.58 2640.02 905.927 2640.82 906.306 2645.21 908.044 2646.77 908.423 2648.3 908.803 2653.23 909.845 2656.03 909.656 2658.82 909.466 2664.63 908.36 2667.06 907.855 2669.5 907.349 2681.22 905.453 2681.22 905.453 2681.22 905.453 2693.45 903.589 2693.85 903.526 2694.25 903.462 2705.61 901.756 2706.2 901.693 2706.78 901.63 2714.29 900.808 2718.07 901.156 2721.84 901.503 2731.68 902.799 2732.8 903.052 2733.93 903.304 2739.88 905.264 2740.97 905.706 2742.06 906.148 2749.07 908.866 2750.95 909.213 2752.81 909.561 2756.29 909.908 2759.7 909.213 2763.15 908.55 2769.98 907.159 2770.7 907.033 2771.43 906.907 2778.36 906.148 2779.38 906.117 2780.39 906.085 2783.62 905.99 2784.97 906.496 2786.31 906.97 2789.76 908.739 2791.07 909.15 2792.34 909.593 2796 910.54 2798.51 910.825 2801.01 911.109 2808.16 911.552 2809.33 911.678 2810.49 911.773 2815.61 912.215 2816.62 912.342 2817.64 912.468 2820.69 913.068 2822.36 913.764 2824.03 914.459 2828.6 916.797 2830.67 918.314 2832.78 919.831 2836.88 923.148 2836.88 923.148L2841.85 927.635C2841.85 927.635 2847.55 932.849 2848.57 933.734 2849.58 934.619 2855.1 939.137 2856.48 940.022 2857.86 940.938 2860.4 942.518 2862.04 942.423 2863.67 942.329 2865.96 942.297 2869.59 940.275 2873.22 938.253 2877.75 935.472 2879.02 934.903 2880.33 934.334 2882.76 933.449 2884.22 933.323 2885.67 933.197 2888.5 933.07 2890.89 933.639 2893.29 934.208 2894.63 934.334 2895.36 935.756 2896.09 937.178 2896.34 938.158 2896.23 939.074 2896.12 939.959 2896.19 944.951 2896.16 945.583 2896.16 946.215 2896.09 948.68 2896.67 949.944 2897.25 951.208 2898.19 953.009 2899.64 954.368 2901.09 955.727 2904.33 958.286 2905.6 958.728 2906.87 959.171 2907.92 959.613 2910.53 959.487 2913.15 959.36 2918.85 958.728 2920.48 958.665 2922.11 958.602 2924.58 958.507 2926.07 958.792 2927.56 959.076 2930.61 959.866 2932.2 960.498 2933.8 961.13 2936.71 962.426 2937.87 963.057 2939.07 963.658 2940.66 964.764 2942.3 964.953 2943.93 965.143 2946.4 965.175 2948.47 964.827 2950.54 964.479 2953.04 963.405 2954.06 962.71 2955.07 962.046 2958.09 960.372 2960.05 959.676 2962.01 958.981 2967.24 957.401 2969.23 957.117 2971.23 956.833 2972.83 956.422 2974.2 957.18 2975.58 957.938 2978.31 959.898 2979.58 961.13 2980.85 962.362 2984.59 966.502 2985.02 967.039 2985.46 967.576 2987.42 970.199 2987.85 970.862 2988.25 971.526 2990.25 975.318 2990.61 976.076 2990.98 976.835 2994.9 986.567 2995.48 988.147 2996.06 989.727 2998.6 997.121 2999.07 998.322 2999.51 999.522 3001.43 1003.63 3002.16 1004.83 3002.88 1006.03 3007.27 1012.35 3009.31 1014.56 3011.34 1016.78 3015.41 1020.79 3015.99 1021.29 3016.57 1021.8 3017.88 1023.09 3019.98 1023.6 3022.09 1024.11 3026.48 1024.77 3027.82 1024.9 3029.16 1025.02 3035.23 1025.4 3036.06 1025.43 3036.93 1025.46 3040.67 1025.59 3042.2 1025.78 3043.72 1026 3049.64 1027.3 3050.76 1027.65 3051.89 1027.99 3058.24 1030.27 3058.75 1030.49 3059.26 1030.71 3064.49 1033.11 3065.47 1033.78 3066.45 1034.44 3069.89 1037.09 3070.26 1037.38 3070.62 1037.69 3074.43 1041.01 3075.01 1041.55 3075.59 1042.09 3078.97 1045.44 3079.62 1046.16 3080.24 1046.86 3082.2 1049.32 3082.49 1050.21 3082.78 1051.09 3083.07 1052.96 3082.93 1053.56 3082.78 1054.12 3083.58 1054.73 3084.96 1055.04 3086.34 1055.36 3091.42 1057.38 3092.22 1057.7 3093.02 1058.01 3096.21 1059.15 3096.65 1059.24 3097.05 1059.34 3099.23 1059.69 3100.1 1059.37 3100.97 1059.05 3104.63 1057.85 3105.76 1057.6 3106.89 1057.35 3112.44 1056.24 3112.44 1056.24 3112.44 1056.24 3109.1 1051.25 3108.55 1050.18 3108.01 1049.07 3105.29 1042.65 3104.82 1040.25 3104.34 1037.85 3104.56 1036.3 3105.83 1034.34 3107.1 1032.39 3115.45 1021.17 3115.45 1021.17 3115.45 1021.17 3123.33 1011.34 3123.91 1010.65 3124.49 1009.95 3128.81 1005.21 3129.68 1004.23 3130.55 1003.25 3137.01 994.783 3137.74 993.771 3138.47 992.76 3146.74 980.721 3146.74 980.721 3146.74 980.721 3154.08 969.567 3155.42 966.691 3156.76 963.816 3158.98 960.024 3159.63 959.044 3160.28 958.065 3164.31 952.282 3164.6 951.84 3164.93 951.397 3171.86 941.981 3171.86 941.981L3180.72 930.574C3180.72 930.574 3185.62 924.128 3189.43 920.842 3193.24 917.524 3199.49 912.405 3202.86 910.572 3206.24 908.739 3209.51 907.191 3213.32 906.243 3217.13 905.295 3227.4 903.146 3228.67 902.894 3229.95 902.609 3235.35 901.377 3237.68 900.524 3239.96 899.671 3250.13 895.563 3251.33 895.026 3252.52 894.52 3260.22 891.107 3260.22 891.107L3266.5 888.263C3266.5 888.263 3232.12 887.031 3227.3 886.684 3222.47 886.336 3181.3 882.039 3171.57 882.039 3161.84 882.039 3152.08 884.156 3139.85 882.039 3127.61 879.921 3118.03 876.477 3106.49 875.94 3094.94 875.403 3083.51 875.94 3078.97 874.486 3074.43 873.033 3051.45 852.241 3041.69 847.469 3031.96 842.698 2993.15 813.438 2991.19 811.321 2989.23 809.204 2924.73 754.001 2916.34 747.776 2907.99 741.551 2893.69 731.755 2893.69 731.755 2893.69 731.755 2833.76 684.895 2826.9 678.922 2820.03 672.95 2795.86 657.593 2786.6 654.433 2777.31 651.242 2741.26 633.768 2733.06 628.491 2724.85 623.182 2644.08 573.004 2634.17 569.307 2624.3 565.61 2570.28 553.16 2561.94 551.548 2553.59 549.968 2517.68 544.533 2517.68 544.533L2502.18 541.5C2502.18 541.5 2478.59 554.487 2464.47 557.931 2450.31 561.375 2424.46 567.727 2417.17 569.054 2409.87 570.381 2391.61 573.541 2388.13 574.078 2384.64 574.615 2379.6 574.995 2377.93 575.784 2376.26 576.574 2374.88 576.922 2374.8 577.175 2374.73 577.428 2372.7 579.292 2373.1 579.829 2373.5 580.366 2374.44 580.935 2374.62 581.535 2374.8 582.136 2373.9 584.79 2373.9 584.79Z" stroke="#FFFFFF" stroke-width="4.58333" stroke-miterlimit="8" fill="#8FCEC7" fill-rule="evenodd" fill-opacity="0.701961"/><path d="M3034.47 1892.5C3034.47 1892.5 3037.51 1917.19 3034.47 1920.72 3031.42 1924.26 3022.1 1926.02 3020.9 1933.06 3019.67 1940.1 3023.73 1951.75 3022.54 1959.52 3021.3 1967.28 3017.68 1979.28 3008.75 1980.67 2999.83 1982.09 2986.45 1983.48 2981.19 1988.09 2975.93 1992.7 2971.87 2007.12 2961.32 2013.85 2950.76 2020.54 2934.15 2027.96 2931.72 2036.76 2929.29 2045.57 2928.89 2049.8 2931.72 2058.99 2934.55 2068.17 2928.57 2072.4 2929.73 2079.1 2930.89 2085.79 2931.29 2092.51 2931.72 2100.62 2932.12 2108.74 2931.1 2117.92 2929.58 2118.97 2928.06 2120.04 2948.33 2132.38 2959.28 2132.38 2970.24 2132.38 2995.37 2131.69 3003.46 2128.15 3011.55 2124.62 3017.24 2121.46 3024.93 2123.57 3032.62 2125.69 3030.19 2126.38 3044.37 2126.38 3058.55 2126.38 3070.7 2123.92 3080.86 2123.92 3091.01 2123.92 3120.97 2128.5 3129.09 2132.38 3137.18 2136.26 3152.59 2140.15 3162.31 2141.19 3172.03 2142.26 3261.51 2144.63 3266.08 2143.05 3270.65 2141.47 3273.69 2138.57 3283.99 2140.68 3294.33 2142.8 3303.14 2148.1 3308.29 2155.77 3313.44 2163.44 3319.24 2173.23 3329.25 2175.09 3339.3 2176.95 3350.22 2177.46 3355.4 2173.51 3360.55 2169.54 3378.11 2156.63 3378.11 2156.63L3385.33 2104.48 3399.61 2001.22 3412.13 1923.97 3415.5 1903.07C3415.5 1903.07 3397.08 1906.86 3391.16 1908 3385.25 1909.14 3355.04 1914.6 3347.75 1915.45 3340.46 1916.3 3306.15 1919.24 3302.67 1919.52 3299.19 1919.81 3266.18 1922.52 3266.18 1922.52L3220.31 1926.21C3220.31 1926.21 3186.07 1928.8 3184.04 1928.8 3182.01 1928.8 3151.72 1929.24 3151.72 1929.24L3120.21 1929.5C3120.21 1929.5 3098.41 1929.37 3095.47 1929.18 3092.53 1928.99 3085.97 1928.49 3078.64 1925.58 3071.32 1922.71 3067.07 1920.82 3062.14 1917.19 3057.21 1913.56 3055.25 1909.93 3051.44 1906.2 3047.63 1902.44 3043.35 1898.5 3040.74 1896.67 3038.13 1894.84 3034.47 1892.56 3034.47 1892.56L3034.47 1892.5Z" stroke="#FFFFFF" stroke-width="4.58333" stroke-miterlimit="8" fill="#8FCEC7" fill-rule="evenodd" fill-opacity="0.701961"/><path d="M3034.15 1892.37C3034.15 1892.37 3037.19 1917.02 3034.15 1920.55 3031.1 1924.08 3021.79 1925.84 3020.59 1932.87 3019.36 1939.9 3023.42 1951.53 3022.22 1959.29 3020.99 1967.04 3017.37 1979.02 3008.45 1980.41 2999.54 1981.83 2986.16 1983.21 2980.91 1987.81 2975.65 1992.42 2971.59 2006.82 2961.05 2013.54 2950.5 2020.22 2933.9 2027.63 2931.47 2036.42 2929.04 2045.21 2928.65 2049.44 2931.47 2058.61 2934.3 2067.78 2928.32 2072.01 2929.48 2078.69 2930.64 2085.37 2931.04 2092.09 2931.47 2100.19 2931.91 2108.29 2930.86 2117.46 2929.33 2118.5 2929.33 2118.5 2925.31 2113.36 2918.32 2112.83 2911.32 2112.29 2897.8 2112.57 2894.76 2113.9 2891.71 2115.22 2891.1 2116.8 2891.1 2116.8 2891.1 2116.8 2886.39 2102.14 2882 2099.75 2877.58 2097.38 2873.96 2101.32 2868.48 2094.86 2863.01 2088.4 2865.76 2084.17 2859.06 2081.12 2852.39 2078.09 2848.26 2077.93 2848.26 2073.05 2848.26 2068.16 2849.17 2061.04 2845.36 2061.04 2841.55 2061.04 2828.04 2068.45 2825.61 2071.34 2823.18 2074.24 2823.47 2082.57 2820.9 2087.74 2818.32 2092.87 2818.47 2096.59 2812.09 2094.86 2805.71 2093.16 2795.09 2084.43 2793.71 2079 2792.34 2073.58 2789.62 2067.25 2783.68 2067.25 2777.73 2067.25 2766.06 2069.89 2762.58 2068.32 2759.1 2066.74 2754.5 2058.64 2752.87 2056.53 2751.24 2054.42 2747.8 2052.21 2742.14 2052.56 2736.49 2052.91 2732.61 2055.46 2732.1 2053.09 2731.59 2050.73 2731.88 2038.31 2732.1 2034.43 2732.32 2030.56 2731.2 2025.64 2725.51 2023.78 2719.85 2021.92 2716.7 2024.66 2716.59 2021.48 2716.48 2018.3 2720.76 2004.93 2718.91 2000.42 2717.1 1995.95 2714.23 1992.51 2713.66 1987.22 2713.08 1981.92 2707.28 1973.13 2703.72 1972.78 2700.17 1972.43 2681.29 1974.13 2676.91 1970.98 2672.48 1967.8 2671.9 1966.63 2671.9 1960.55 2671.9 1954.47 2674.19 1944.57 2673.14 1940.88 2672.08 1937.19 2668.57 1933.09 2671.9 1931.77 2675.24 1930.45 2677.38 1932.68 2681.94 1933.22 2686.51 1933.76 2693.94 1928.74 2697.74 1926.76 2701.55 1924.77 2703.36 1921.46 2709.45 1924.39 2715.54 1927.29 2721.59 1928.49 2724.17 1925.97 2726.74 1923.45 2736.16 1908.92 2733.73 1904.98 2731.31 1901.01 2723.55 1895.46 2724.93 1890.7 2726.3 1885.94 2735.4 1878.41 2732.97 1873.27 2730.54 1868.13 2725.83 1864.54 2721.45 1864.16 2717.03 1863.75 2714.45 1861.92 2715.83 1859.68 2717.21 1857.44 2726.63 1844.36 2727.83 1839.86 2729.06 1835.38 2726.45 1832.2 2728.88 1828.63 2731.31 1825.07 2744.21 1818.99 2747.25 1816.34 2750.3 1813.69 2752.72 1809.09 2750.91 1804.05 2749.1 1799.04 2745 1792.7 2748.63 1787.15 2752.29 1781.61 2754.86 1778.83 2755.62 1778.42 2756.38 1778.01 2761.24 1785.29 2762 1788.73 2762.76 1792.17 2769.9 1806.16 2773.53 1808.15 2777.19 1810.13 2782.95 1811.71 2785.81 1810.26 2788.71 1808.81 2817.71 1785.04 2825.32 1780 2832.93 1774.99 2839.74 1774.32 2845.36 1771.27 2850.98 1768.24 2853.26 1764.14 2855.4 1762.41 2857.54 1760.71 2867.25 1761.09 2874.25 1760.71 2881.24 1760.3 2885.77 1757.02 2890.48 1756.07 2895.19 1755.16 2905.96 1762.41 2911.43 1761.5 2916.9 1760.58 2925.09 1752.92 2928.9 1751.47 2932.7 1750.02 2942.71 1747.5 2942.71 1747.5L2946.98 1747.5C2946.98 1747.5 2954.41 1754.97 2955.97 1756.77 2957.53 1758.6 2966.16 1768.52 2966.7 1769.12 2967.24 1769.69 2975.25 1778.11 2976.67 1779.75 2978.08 1781.39 2982.5 1786.84 2983.41 1788.22 2984.35 1789.61 2987.29 1794.31 2987.65 1796.2 2988.01 1798.09 2988.26 1801.46 2986.49 1804.81 2984.71 1808.15 2980.83 1813.91 2979.6 1815.62 2978.37 1817.32 2975.4 1820.91 2974.42 1823.65 2973.44 1826.4 2972.03 1832.64 2971.88 1834.81 2971.74 1836.99 2971.34 1840.86 2972.06 1843.76 2972.79 1846.7 2973.08 1847.93 2975.94 1850.54 2978.8 1853.16 2984.17 1857.6 2984.17 1857.6 2984.17 1857.6 2991.05 1862.93 2991.92 1863.59 2992.79 1864.25 3001.2 1870.4 3002.54 1871.38 3003.92 1872.35 3012.33 1878.25 3013.53 1879.07 3014.72 1879.89 3023.67 1885.88 3023.67 1885.88L3030.12 1890.01 3034 1892.4 3034.15 1892.37Z" stroke="#FFFFFF" stroke-width="4.58333" stroke-miterlimit="8" fill="#8FCEC7" fill-rule="evenodd" fill-opacity="0.701961"/><path d="M2715.67 1859.35C2717.05 1857.1 2726.48 1843.96 2727.68 1839.43 2728.87 1834.9 2726.3 1831.73 2728.73 1828.15 2731.16 1824.57 2744.07 1818.46 2747.12 1815.8 2750.17 1813.14 2752.6 1808.51 2750.78 1803.44 2748.97 1798.41 2744.87 1792.04 2748.5 1786.46 2752.16 1780.89 2754.74 1778.1 2755.5 1777.69 2755.5 1777.69 2750.89 1769.49 2744.22 1770.28 2737.54 1771.07 2733.73 1779.31 2724.59 1778.77 2715.49 1778.23 2707.25 1776.11 2704.97 1776.9 2702.68 1777.69 2694.01 1784.34 2690.82 1783.01 2687.63 1781.68 2688.24 1774.78 2683.96 1767.87 2679.72 1760.96 2674.24 1757.92 2669.67 1760.3 2665.1 1762.67 2660.85 1766.67 2660.85 1776.49 2660.85 1786.31 2663 1793.46 2659.04 1797.58 2655.09 1801.7 2641.27 1813.23 2633.79 1815.1 2626.36 1816.97 2612.5 1823.21 2610.54 1827.83 2608.58 1832.49 2604.16 1837.65 2611.92 1838.86 2619.68 1840.06 2626.07 1836.86 2627.26 1842.56 2628.5 1848.27 2626.5 1852.64 2625.59 1856.37 2624.69 1860.08 2622.87 1874.18 2626.21 1878.55 2629.55 1882.92 2633.21 1888.62 2638.51 1892.74 2643.84 1896.86 2649.75 1900.69 2651.42 1904.14 2653.09 1907.6 2659.33 1909.85 2663.58 1907.6 2667.82 1905.35 2672.1 1896.86 2672.39 1892.07 2672.68 1887.29 2674.97 1875.22 2679.25 1870.03 2683.49 1864.86 2689.3 1864.33 2695.5 1864.71 2701.74 1865.12 2709.03 1865.37 2711.17 1864.17 2713.31 1862.96 2715.63 1859.23 2715.63 1859.23L2715.67 1859.35Z" stroke="#FFFFFF" stroke-width="4.58333" stroke-miterlimit="8" fill="#8FCEC7" fill-rule="evenodd" fill-opacity="0.701961"/><path d="M2891.5 2116.72C2891.5 2116.72 2886.77 2102.01 2882.37 2099.61 2877.93 2097.24 2874.3 2101.19 2868.8 2094.71 2863.31 2088.22 2866.08 2083.99 2859.35 2080.92 2852.62 2077.85 2848.51 2077.72 2848.51 2072.82 2848.51 2067.92 2849.42 2060.78 2845.6 2060.78 2841.78 2060.78 2828.21 2068.21 2825.78 2071.12 2823.34 2074.03 2823.63 2082.37 2821.05 2087.56 2818.47 2092.75 2818.61 2096.45 2812.21 2094.71 2805.81 2093 2795.15 2084.24 2793.77 2078.8 2792.39 2073.36 2789.66 2067.01 2783.7 2067.01 2777.73 2067.01 2766.02 2069.66 2762.53 2068.08 2759.04 2066.5 2754.42 2058.37 2752.78 2056.25 2751.14 2054.14 2747.69 2051.92 2742.01 2052.27 2736.34 2052.62 2732.45 2055.18 2731.94 2052.81 2731.43 2050.44 2731.72 2037.98 2731.94 2034.09 2732.16 2030.2 2731.03 2025.26 2725.32 2023.4 2719.65 2021.53 2716.55 2023.02 2713.21 2023.87 2713.21 2023.87 2692.69 2036.24 2691.86 2041.01 2691.06 2045.79 2691.24 2048.6 2696.22 2052.24 2701.21 2055.87 2714.81 2071.84 2716.74 2073.71 2718.66 2075.57 2734.7 2087.05 2736.45 2088.48 2738.16 2089.9 2764.09 2110.64 2767.15 2114.38 2770.2 2118.07 2772.31 2123.93 2772.31 2129.74 2772.31 2135.56 2772.31 2148.81 2772.93 2155.45 2773.55 2162.09 2775.98 2163.93 2776.89 2161.81 2777.8 2159.69 2777.51 2153.59 2779.95 2153.05 2782.39 2152.51 2783.91 2154.63 2789.08 2158.87 2794.24 2163.1 2796.1 2164.18 2796.72 2168.42 2797.33 2172.65 2788.5 2170 2786.35 2173.19 2784.21 2176.39 2786.53 2184.58 2791.48 2185.9 2796.43 2187.23 2808.32 2188.02 2811.96 2191.72 2815.63 2195.42 2818.65 2198.08 2818.98 2201.53 2819.27 2204.97 2815.92 2213.19 2817.45 2216.89 2818.98 2220.59 2828.1 2222.46 2828.43 2228.28 2828.72 2234.1 2825.09 2236.5 2825.09 2236.5 2825.09 2236.5 2846.11 2224.83 2850.07 2220.06 2854.04 2215.28 2855.86 2205.48 2861.06 2202.03 2866.22 2198.58 2868.7 2200.17 2872.62 2197.26 2876.59 2194.35 2876.3 2184.54 2872.01 2178.44 2867.75 2172.34 2868.95 2162.82 2870.19 2159.63 2871.42 2156.43 2867.46 2145.84 2872.01 2142.93 2876.59 2140.02 2883.28 2140.56 2883.28 2137.62 2883.28 2134.68 2876.26 2132.18 2875.06 2129.46 2873.82 2126.74 2878.52 2124.53 2880.66 2123.29 2882.81 2122.06 2887.46 2119.85 2887.46 2119.85L2891.46 2116.68 2891.5 2116.72Z" stroke="#FFFFFF" stroke-width="4.58333" stroke-miterlimit="8" fill="#8FCEC7" fill-rule="evenodd" fill-opacity="0.701961"/><path d="M2705.54 2181.77C2705.54 2181.77 2705.92 2187.84 2708.99 2189.75 2712.05 2191.67 2716.95 2193.43 2718.82 2195.53 2720.68 2197.64 2725.23 2201.5 2725.23 2201.5 2725.23 2201.5 2732.91 2198.52 2734.39 2197.54 2735.87 2196.57 2739.99 2190.95 2735.38 2190.44 2730.76 2189.91 2728.68 2187.99 2726.11 2187.55 2723.54 2187.11 2721.11 2185.98 2720.19 2185.01 2719.31 2184.04 2719.49 2184.57 2721.07 2181.77 2722.66 2178.98 2725.69 2178.54 2726.39 2177.66 2727.1 2176.78 2727.87 2173.99 2727.59 2172.82 2727.31 2171.69 2728.68 2164.22 2724.35 2162.55 2720.02 2160.89 2717.27 2160.1 2716.07 2160.7 2714.87 2161.33 2714.2 2164.37 2715.36 2165.6 2716.56 2166.82 2720.09 2169.46 2718.99 2171.03 2717.9 2172.6 2713.07 2175.87 2712.41 2176.03 2711.7 2176.22 2706.2 2177.5 2706.2 2177.5L2705.5 2181.71 2705.54 2181.77Z" stroke="#FFFFFF" stroke-width="5.22175" stroke-miterlimit="8" fill="#BCFFBB" fill-rule="evenodd"/><path d="M2737.56 2180C2737.56 2180 2741.49 2180.35 2742.67 2181.92 2743.88 2183.48 2745.56 2186.37 2745.95 2187.53 2746.35 2188.67 2744.06 2192.18 2743.56 2191.99 2743.06 2191.8 2738.88 2188.32 2737.52 2187.1 2736.16 2185.87 2733.27 2184.21 2733.27 2184.21 2733.27 2184.21 2732.66 2182.01 2733.27 2181.76 2733.88 2181.51 2737.52 2180 2737.52 2180L2737.56 2180Z" stroke="#FFFFFF" stroke-width="18.2767" stroke-miterlimit="8" fill="#BCFFBB" fill-rule="evenodd"/><path d="M1962 952.691C1962 952.691 1967.1 950.824 1967.73 951.014 1968.35 951.204 1974.08 954.021 1975.15 955.919 1976.22 957.818 1976.19 961.015 1975.56 962.376 1974.93 963.737 1971.97 965.699 1968.98 964.75 1965.99 963.832 1961.56 962.946 1961.11 960.509 1960.63 958.072 1959.67 956.014 1960.11 955.128 1960.56 954.242 1961.96 952.691 1961.96 952.691L1962 952.691Z" stroke="#FFFFFF" stroke-width="18.2767" stroke-miterlimit="8" fill="#BCFFBB" fill-rule="evenodd"/><path d="M3558.5 1497C3558.5 1475.74 3575.74 1458.5 3597 1458.5 3618.26 1458.5 3635.5 1475.74 3635.5 1497 3635.5 1518.26 3618.26 1535.5 3597 1535.5 3575.74 1535.5 3558.5 1518.26 3558.5 1497Z" stroke="#EC8000" stroke-width="6.875" stroke-miterlimit="8" fill="none" fill-rule="evenodd"/><path d="M3570.5 1497C3570.5 1482.36 3582.59 1470.5 3597.5 1470.5 3612.41 1470.5 3624.5 1482.36 3624.5 1497 3624.5 1511.64 3612.41 1523.5 3597.5 1523.5 3582.59 1523.5 3570.5 1511.64 3570.5 1497Z" stroke="#00A88F" stroke-width="6.875" stroke-miterlimit="8" fill="#FFFFFF" fill-rule="evenodd"/><path d="M3585 1496.5C3585 1490.15 3590.15 1485 3596.5 1485 3602.85 1485 3608 1490.15 3608 1496.5 3608 1502.85 3602.85 1508 3596.5 1508 3590.15 1508 3585 1502.85 3585 1496.5Z" fill="#00619E" fill-rule="evenodd"/><path d="M3134.5 1368C3134.5 1346.74 3151.96 1329.5 3173.5 1329.5 3195.04 1329.5 3212.5 1346.74 3212.5 1368 3212.5 1389.26 3195.04 1406.5 3173.5 1406.5 3151.96 1406.5 3134.5 1389.26 3134.5 1368Z" stroke="#EC8000" stroke-width="6.875" stroke-miterlimit="8" fill="none" fill-rule="evenodd"/><path d="M3146.5 1367.5C3146.5 1352.59 3158.59 1340.5 3173.5 1340.5 3188.41 1340.5 3200.5 1352.59 3200.5 1367.5 3200.5 1382.41 3188.41 1394.5 3173.5 1394.5 3158.59 1394.5 3146.5 1382.41 3146.5 1367.5Z" stroke="#00A88F" stroke-width="6.875" stroke-miterlimit="8" fill="#FFFFFF" fill-rule="evenodd"/><path d="M3162 1367C3162 1360.93 3166.93 1356 3173 1356 3179.08 1356 3184 1360.93 3184 1367 3184 1373.08 3179.08 1378 3173 1378 3166.93 1378 3162 1373.08 3162 1367Z" fill="#00619E" fill-rule="evenodd"/><path d="M2158.5 978C2158.5 956.737 2175.74 939.5 2197 939.5 2218.26 939.5 2235.5 956.737 2235.5 978 2235.5 999.263 2218.26 1016.5 2197 1016.5 2175.74 1016.5 2158.5 999.263 2158.5 978Z" stroke="#EC8000" stroke-width="6.875" stroke-miterlimit="8" fill="none" fill-rule="evenodd"/><path d="M2170.5 977.5C2170.5 962.588 2182.36 950.5 2197 950.5 2211.64 950.5 2223.5 962.588 2223.5 977.5 2223.5 992.412 2211.64 1004.5 2197 1004.5 2182.36 1004.5 2170.5 992.412 2170.5 977.5Z" stroke="#00A88F" stroke-width="6.875" stroke-miterlimit="8" fill="#FFFFFF" fill-rule="evenodd"/><path d="M2185 977.5C2185 971.149 2190.15 966 2196.5 966 2202.85 966 2208 971.149 2208 977.5 2208 983.851 2202.85 989 2196.5 989 2190.15 989 2185 983.851 2185 977.5Z" fill="#00619E" fill-rule="evenodd"/><path d="M2487.5 1370C2487.5 1348.74 2504.74 1331.5 2526 1331.5 2547.26 1331.5 2564.5 1348.74 2564.5 1370 2564.5 1391.26 2547.26 1408.5 2526 1408.5 2504.74 1408.5 2487.5 1391.26 2487.5 1370Z" stroke="#EC8000" stroke-width="6.875" stroke-miterlimit="8" fill="none" fill-rule="evenodd"/><path d="M2498.5 1370.5C2498.5 1355.59 2510.59 1343.5 2525.5 1343.5 2540.41 1343.5 2552.5 1355.59 2552.5 1370.5 2552.5 1385.41 2540.41 1397.5 2525.5 1397.5 2510.59 1397.5 2498.5 1385.41 2498.5 1370.5Z" stroke="#00A88F" stroke-width="6.875" stroke-miterlimit="8" fill="#FFFFFF" fill-rule="evenodd"/><path d="M2514 1369.5C2514 1363.15 2519.15 1358 2525.5 1358 2531.85 1358 2537 1363.15 2537 1369.5 2537 1375.85 2531.85 1381 2525.5 1381 2519.15 1381 2514 1375.85 2514 1369.5Z" fill="#00619E" fill-rule="evenodd"/><path d="M2575.5 1685C2575.5 1663.74 2592.51 1646.5 2613.5 1646.5 2634.49 1646.5 2651.5 1663.74 2651.5 1685 2651.5 1706.26 2634.49 1723.5 2613.5 1723.5 2592.51 1723.5 2575.5 1706.26 2575.5 1685Z" stroke="#EC8000" stroke-width="6.875" stroke-miterlimit="8" fill="none" fill-rule="evenodd"/><path d="M2586.5 1685C2586.5 1669.81 2598.59 1657.5 2613.5 1657.5 2628.41 1657.5 2640.5 1669.81 2640.5 1685 2640.5 1700.19 2628.41 1712.5 2613.5 1712.5 2598.59 1712.5 2586.5 1700.19 2586.5 1685Z" stroke="#00A88F" stroke-width="6.875" stroke-miterlimit="8" fill="#FFFFFF" fill-rule="evenodd"/><path d="M2602 1684.5C2602 1678.15 2607.15 1673 2613.5 1673 2619.85 1673 2625 1678.15 2625 1684.5 2625 1690.85 2619.85 1696 2613.5 1696 2607.15 1696 2602 1690.85 2602 1684.5Z" fill="#00619E" fill-rule="evenodd"/><path d="M2829.5 1988.5C2829.5 1967.51 2846.74 1950.5 2868 1950.5 2889.26 1950.5 2906.5 1967.51 2906.5 1988.5 2906.5 2009.49 2889.26 2026.5 2868 2026.5 2846.74 2026.5 2829.5 2009.49 2829.5 1988.5Z" stroke="#EC8000" stroke-width="6.875" stroke-miterlimit="8" fill="none" fill-rule="evenodd"/><path d="M2841.5 1988.5C2841.5 1973.59 2853.36 1961.5 2868 1961.5 2882.64 1961.5 2894.5 1973.59 2894.5 1988.5 2894.5 2003.41 2882.64 2015.5 2868 2015.5 2853.36 2015.5 2841.5 2003.41 2841.5 1988.5Z" stroke="#00A88F" stroke-width="6.875" stroke-miterlimit="8" fill="#FFFFFF" fill-rule="evenodd"/><path d="M2856 1988C2856 1981.92 2861.15 1977 2867.5 1977 2873.85 1977 2879 1981.92 2879 1988 2879 1994.07 2873.85 1999 2867.5 1999 2861.15 1999 2856 1994.07 2856 1988Z" fill="#00619E" fill-rule="evenodd"/><path d="M0 0 568.333 0 568.333 266.979" stroke="#0B4332" stroke-width="4.58333" stroke-linecap="round" stroke-linejoin="round" stroke-miterlimit="10" fill="none" fill-rule="evenodd" transform="matrix(1.83697e-16 1 1 -1.83697e-16 3597.5 1523.5)"/><path d="M3173.5 1356.55 3173.5 1171.5 3863.86 1171.5" stroke="#0B4332" stroke-width="4.58333" stroke-linecap="round" stroke-linejoin="round" stroke-miterlimit="10" fill="none" fill-rule="evenodd"/><path d="M0 0 434.844 1.14583" stroke="#0B4332" stroke-width="4.58333" stroke-linecap="round" stroke-linejoin="round" stroke-miterlimit="10" fill="none" fill-rule="evenodd" transform="matrix(-1 0 0 1 2536.34 1370.5)"/><path d="M2624.98 1685.22 2275.5 1683.5" stroke="#0B4332" stroke-width="4.58333" stroke-linecap="round" stroke-linejoin="round" stroke-miterlimit="10" fill="none" fill-rule="evenodd"/><path d="M2894.5 1988.5 3116.79 1988.5 3116.79 2235.43" stroke="#0B4332" stroke-width="4.58333" stroke-linecap="round" stroke-linejoin="round" stroke-miterlimit="10" fill="none" fill-rule="evenodd"/><rect x="3859" y="1067" width="362" height="70.0001" fill="#005356"/><text fill="#FFFFFF" font-family="IBM Plex Sans Arabic,IBM Plex Sans Arabic_MSFontService,sans-serif" font-weight="700" font-size="37" direction="rtl" writing-mode="rl-tb" transform="matrix(1 0 0 1 3986.9 1112)" x="105.417"></text><path d="M4199.83 1268 4065.17 1268C4053.48 1268 4044 1258.52 4044 1246.83L4044 1141 4221 1141 4221 1246.83C4221 1258.52 4211.52 1268 4199.83 1268Z" stroke="#D9D9D9" stroke-width="2.29167" stroke-miterlimit="8" fill="#F2F2F2" fill-rule="evenodd"/><path d="M4013.83 1268 3880.17 1268C3868.48 1268 3859 1258.52 3859 1246.83L3859 1141 4035 1141 4035 1246.83C4035 1258.52 4025.52 1268 4013.83 1268Z" stroke="#D9D9D9" stroke-width="2.29167" stroke-miterlimit="8" fill="#F2F2F2" fill-rule="evenodd"/><text fill="#005356" font-family="IBM Plex Sans Arabic,IBM Plex Sans Arabic_MSFontService,sans-serif" font-weight="700" font-size="23" direction="rtl" writing-mode="rl-tb" transform="matrix(1 0 0 1 4093.87 1177)" x="77.9167"></text><text fill="#005356" font-family="IBM Plex Sans Arabic,IBM Plex Sans Arabic_MSFontService,sans-serif" font-weight="700" font-size="23" direction="rtl" writing-mode="rl-tb" transform="matrix(1 0 0 1 3911.15 1177)" x="70.4688"></text><rect x="3859" y="1988" width="362" height="70.0001" fill="#005356"/><text fill="#FFFFFF" font-family="IBM Plex Sans Arabic,IBM Plex Sans Arabic_MSFontService,sans-serif" font-weight="700" font-size="37" direction="rtl" writing-mode="rl-tb" transform="matrix(1 0 0 1 3932.76 2033)" x="213.698"> </text><path d="M4199.67 2189 4065.33 2189C4053.55 2189 4044 2179.45 4044 2167.67L4044 2061 4221 2061 4221 2167.67C4221 2179.45 4211.45 2189 4199.67 2189Z" stroke="#D9D9D9" stroke-width="2.29167" stroke-miterlimit="8" fill="#F2F2F2" fill-rule="evenodd"/><path d="M4013.67 2189 3880.33 2189C3868.55 2189 3859 2179.45 3859 2167.67L3859 2061 4035 2061 4035 2167.67C4035 2179.45 4025.45 2189 4013.67 2189Z" stroke="#D9D9D9" stroke-width="2.29167" stroke-miterlimit="8" fill="#F2F2F2" fill-rule="evenodd"/><text fill="#005356" font-family="IBM Plex Sans Arabic,IBM Plex Sans Arabic_MSFontService,sans-serif" font-weight="700" font-size="23" direction="rtl" writing-mode="rl-tb" transform="matrix(1 0 0 1 4093.87 2098)" x="77.9167"></text><text fill="#005356" font-family="IBM Plex Sans Arabic,IBM Plex Sans Arabic_MSFontService,sans-serif" font-weight="700" font-size="23" direction="rtl" writing-mode="rl-tb" transform="matrix(1 0 0 1 3911.15 2098)" x="70.4688"></text><rect x="2936" y="2235" width="362" height="69.9998" fill="#005356"/><text fill="#FFFFFF" font-family="IBM Plex Sans Arabic,IBM Plex Sans Arabic_MSFontService,sans-serif" font-weight="700" font-size="37" direction="rtl" writing-mode="rl-tb" transform="matrix(1 0 0 1 3079.4 2280)" x="74.4792"></text><path d="M3276.67 2436 3142.33 2436C3130.55 2436 3121 2426.45 3121 2414.67L3121 2308 3298 2308 3298 2414.67C3298 2426.45 3288.45 2436 3276.67 2436Z" stroke="#D9D9D9" stroke-width="2.29167" stroke-miterlimit="8" fill="#F2F2F2" fill-rule="evenodd"/><path d="M3090.67 2436 2957.33 2436C2945.55 2436 2936 2426.45 2936 2414.67L2936 2308 3112 2308 3112 2414.67C3112 2426.45 3102.45 2436 3090.67 2436Z" stroke="#D9D9D9" stroke-width="2.29167" stroke-miterlimit="8" fill="#F2F2F2" fill-rule="evenodd"/><text fill="#005356" font-family="IBM Plex Sans Arabic,IBM Plex Sans Arabic_MSFontService,sans-serif" font-weight="700" font-size="23" direction="rtl" writing-mode="rl-tb" transform="matrix(1 0 0 1 3170.9 2345)" x="77.9167"></text><text fill="#005356" font-family="IBM Plex Sans Arabic,IBM Plex Sans Arabic_MSFontService,sans-serif" font-weight="700" font-size="23" direction="rtl" writing-mode="rl-tb" transform="matrix(1 0 0 1 2988.18 2345)" x="70.4688"></text><rect x="1912" y="1549" width="363" height="71.0001" fill="#005356"/><text fill="#FFFFFF" font-family="IBM Plex Sans Arabic,IBM Plex Sans Arabic_MSFontService,sans-serif" font-weight="700" font-size="37" direction="rtl" writing-mode="rl-tb" transform="matrix(1 0 0 1 2016.36 1594)" x="154.688"> </text><path d="M2253.83 1747 2119.17 1747C2107.48 1747 2098 1737.52 2098 1725.83L2098 1620 2275 1620 2275 1725.83C2275 1737.52 2265.52 1747 2253.83 1747Z" stroke="#D9D9D9" stroke-width="2.29167" stroke-miterlimit="8" fill="#F2F2F2" fill-rule="evenodd"/><path d="M2067.83 1747 1933.17 1747C1921.48 1747 1912 1737.52 1912 1725.83L1912 1620 2089 1620 2089 1725.83C2089 1737.52 2079.52 1747 2067.83 1747Z" stroke="#D9D9D9" stroke-width="2.29167" stroke-miterlimit="8" fill="#F2F2F2" fill-rule="evenodd"/><text fill="#005356" font-family="IBM Plex Sans Arabic,IBM Plex Sans Arabic_MSFontService,sans-serif" font-weight="700" font-size="23" direction="rtl" writing-mode="rl-tb" transform="matrix(1 0 0 1 2148.1 1656)" x="77.9167"></text><text fill="#005356" font-family="IBM Plex Sans Arabic,IBM Plex Sans Arabic_MSFontService,sans-serif" font-weight="700" font-size="23" direction="rtl" writing-mode="rl-tb" transform="matrix(1 0 0 1 1965.09 1656)" x="70.4688"></text><rect x="1745" y="1267" width="362" height="69.9998" fill="#005356"/><text fill="#FFFFFF" font-family="IBM Plex Sans Arabic,IBM Plex Sans Arabic_MSFontService,sans-serif" font-weight="700" font-size="37" direction="rtl" writing-mode="rl-tb" transform="matrix(1 0 0 1 1839.9 1312)" x="171.302"> </text><path d="M2085.83 1468 1951.17 1468C1939.48 1468 1930 1458.52 1930 1446.83L1930 1341 2107 1341 2107 1446.83C2107 1458.52 2097.52 1468 2085.83 1468Z" stroke="#D9D9D9" stroke-width="2.29167" stroke-miterlimit="8" fill="#F2F2F2" fill-rule="evenodd"/><path d="M1899.83 1468 1766.17 1468C1754.48 1468 1745 1458.52 1745 1446.83L1745 1341 1921 1341 1921 1446.83C1921 1458.52 1911.52 1468 1899.83 1468Z" stroke="#D9D9D9" stroke-width="2.29167" stroke-miterlimit="8" fill="#F2F2F2" fill-rule="evenodd"/><text fill="#005356" font-family="IBM Plex Sans Arabic,IBM Plex Sans Arabic_MSFontService,sans-serif" font-weight="700" font-size="23" direction="rtl" writing-mode="rl-tb" transform="matrix(1 0 0 1 1979.8 1377)" x="77.9167"></text><text fill="#005356" font-family="IBM Plex Sans Arabic,IBM Plex Sans Arabic_MSFontService,sans-serif" font-weight="700" font-size="23" direction="rtl" writing-mode="rl-tb" transform="matrix(1 0 0 1 1797.08 1377)" x="70.4688"></text><rect x="1580" y="838" width="362" height="70.9998" fill="#005356"/><text fill="#FFFFFF" font-family="IBM Plex Sans Arabic,IBM Plex Sans Arabic_MSFontService,sans-serif" font-weight="700" font-size="37" direction="rtl" writing-mode="rl-tb" transform="matrix(1 0 0 1 1726.17 883)" x="69.8958"></text><path d="M1920.83 1039 1787.17 1039C1775.48 1039 1766 1029.52 1766 1017.83L1766 912 1942 912 1942 1017.83C1942 1029.52 1932.52 1039 1920.83 1039Z" stroke="#D9D9D9" stroke-width="2.29167" stroke-miterlimit="8" fill="#F2F2F2" fill-rule="evenodd"/><path d="M1735.83 1039 1601.17 1039C1589.48 1039 1580 1029.52 1580 1017.83L1580 912 1757 912 1757 1017.83C1757 1029.52 1747.52 1039 1735.83 1039Z" stroke="#D9D9D9" stroke-width="2.29167" stroke-miterlimit="8" fill="#F2F2F2" fill-rule="evenodd"/><text fill="#005356" font-family="IBM Plex Sans Arabic,IBM Plex Sans Arabic_MSFontService,sans-serif" font-weight="700" font-size="23" direction="rtl" writing-mode="rl-tb" transform="matrix(1 0 0 1 1815.38 948)" x="77.9167"></text><text fill="#005356" font-family="IBM Plex Sans Arabic,IBM Plex Sans Arabic_MSFontService,sans-serif" font-weight="700" font-size="23" direction="rtl" writing-mode="rl-tb" transform="matrix(1 0 0 1 1632.66 948)" x="70.4688"></text><rect x="3586" y="753" width="362" height="70.9998" fill="#005356"/><text fill="#FFFFFF" font-family="IBM Plex Sans Arabic,IBM Plex Sans Arabic_MSFontService,sans-serif" font-weight="700" font-size="37" direction="rtl" writing-mode="rl-tb" transform="matrix(1 0 0 1 3712.48 799)" x="108.854"></text><path d="M3926.83 954 3793.17 954C3781.48 954 3772 944.523 3772 932.833L3772 827 3948 827 3948 932.833C3948 944.523 3938.52 954 3926.83 954Z" stroke="#D9D9D9" stroke-width="2.29167" stroke-miterlimit="8" fill="#F2F2F2" fill-rule="evenodd"/><path d="M3740.83 954 3607.17 954C3595.48 954 3586 944.523 3586 932.833L3586 827 3762 827 3762 932.833C3762 944.523 3752.52 954 3740.83 954Z" stroke="#D9D9D9" stroke-width="2.29167" stroke-miterlimit="8" fill="#F2F2F2" fill-rule="evenodd"/><text fill="#005356" font-family="IBM Plex Sans Arabic,IBM Plex Sans Arabic_MSFontService,sans-serif" font-weight="700" font-size="23" direction="rtl" writing-mode="rl-tb" transform="matrix(1 0 0 1 3821.16 863)" x="77.9167"></text><text fill="#005356" font-family="IBM Plex Sans Arabic,IBM Plex Sans Arabic_MSFontService,sans-serif" font-weight="700" font-size="23" direction="rtl" writing-mode="rl-tb" transform="matrix(1 0 0 1 3638.44 863)" x="70.4688"></text><path d="M2923.5 1174.32 2923.5 857.5 3591.52 857.5" stroke="#0B4332" stroke-width="4.58333" stroke-linecap="round" stroke-linejoin="round" stroke-miterlimit="10" fill="none" fill-rule="evenodd"/><path d="M2885.5 1213C2885.5 1191.74 2902.51 1174.5 2923.5 1174.5 2944.49 1174.5 2961.5 1191.74 2961.5 1213 2961.5 1234.26 2944.49 1251.5 2923.5 1251.5 2902.51 1251.5 2885.5 1234.26 2885.5 1213Z" stroke="#EC8000" stroke-width="6.875" stroke-miterlimit="8" fill="none" fill-rule="evenodd"/><path d="M2896.5 1212.5C2896.5 1197.59 2908.59 1185.5 2923.5 1185.5 2938.41 1185.5 2950.5 1197.59 2950.5 1212.5 2950.5 1227.41 2938.41 1239.5 2923.5 1239.5 2908.59 1239.5 2896.5 1227.41 2896.5 1212.5Z" stroke="#00A88F" stroke-width="6.875" stroke-miterlimit="8" fill="#FFFFFF" fill-rule="evenodd"/><path d="M2912 1212.5C2912 1206.15 2916.92 1201 2923 1201 2929.08 1201 2934 1206.15 2934 1212.5 2934 1218.85 2929.08 1224 2923 1224 2916.92 1224 2912 1218.85 2912 1212.5Z" fill="#00619E" fill-rule="evenodd"/><rect x="1778" y="521" width="362" height="69.9998" fill="#005356"/><text fill="#FFFFFF" font-family="IBM Plex Sans Arabic,IBM Plex Sans Arabic_MSFontService,sans-serif" font-weight="700" font-size="37" direction="rtl" writing-mode="rl-tb" transform="matrix(1 0 0 1 1911.23 566)" x="96.25"></text><path d="M2118.83 722 1985.17 722C1973.48 722 1964 712.523 1964 700.833L1964 595 2140 595 2140 700.833C2140 712.523 2130.52 722 2118.83 722Z" stroke="#D9D9D9" stroke-width="2.29167" stroke-miterlimit="8" fill="#F2F2F2" fill-rule="evenodd"/><path d="M1933.83 722 1799.17 722C1787.48 722 1778 712.523 1778 700.833L1778 595 1955 595 1955 700.833C1955 712.523 1945.52 722 1933.83 722Z" stroke="#D9D9D9" stroke-width="2.29167" stroke-miterlimit="8" fill="#F2F2F2" fill-rule="evenodd"/><text fill="#005356" font-family="IBM Plex Sans Arabic,IBM Plex Sans Arabic_MSFontService,sans-serif" font-weight="700" font-size="23" direction="rtl" writing-mode="rl-tb" transform="matrix(1 0 0 1 2013.61 631)" x="77.9167"></text><text fill="#005356" font-family="IBM Plex Sans Arabic,IBM Plex Sans Arabic_MSFontService,sans-serif" font-weight="700" font-size="23" direction="rtl" writing-mode="rl-tb" transform="matrix(1 0 0 1 1830.89 631)" x="70.4688"></text><path d="M2396.5 805C2396.5 783.737 2413.74 766.5 2435 766.5 2456.26 766.5 2473.5 783.737 2473.5 805 2473.5 826.263 2456.26 843.5 2435 843.5 2413.74 843.5 2396.5 826.263 2396.5 805Z" stroke="#EC8000" stroke-width="6.875" stroke-miterlimit="8" fill="none" fill-rule="evenodd"/><path d="M2407.5 804.5C2407.5 789.588 2419.59 777.5 2434.5 777.5 2449.41 777.5 2461.5 789.588 2461.5 804.5 2461.5 819.412 2449.41 831.5 2434.5 831.5 2419.59 831.5 2407.5 819.412 2407.5 804.5Z" stroke="#00A88F" stroke-width="6.875" stroke-miterlimit="8" fill="#FFFFFF" fill-rule="evenodd"/><path d="M2423 804.5C2423 798.149 2428.15 793 2434.5 793 2440.85 793 2446 798.149 2446 804.5 2446 810.851 2440.85 816 2434.5 816 2428.15 816 2423 810.851 2423 804.5Z" fill="#00619E" fill-rule="evenodd"/><path d="M2429.98 805.969 2429.31 805.969 2429.31 625.5 2135.5 625.5" stroke="#0B4332" stroke-width="4.58333" stroke-linecap="round" stroke-linejoin="round" stroke-miterlimit="10" fill="none" fill-rule="evenodd"/><path d="M2223.8 978.219 1942.5 976.5" stroke="#0B4332" stroke-width="4.58333" stroke-linecap="round" stroke-linejoin="round" stroke-miterlimit="10" fill="none" fill-rule="evenodd"/><rect x="2275" y="2235" width="362" height="69.9998" fill="#005356"/><text fill="#FFFFFF" font-family="IBM Plex Sans Arabic,IBM Plex Sans Arabic_MSFontService,sans-serif" font-weight="700" font-size="37" direction="rtl" writing-mode="rl-tb" transform="matrix(1 0 0 1 2416.25 2280)" x="79.6354"></text><path d="M2615.67 2436 2482.33 2436C2470.55 2436 2461 2426.45 2461 2414.67L2461 2308 2637 2308 2637 2414.67C2637 2426.45 2627.45 2436 2615.67 2436Z" stroke="#D9D9D9" stroke-width="2.29167" stroke-miterlimit="8" fill="#F2F2F2" fill-rule="evenodd"/><path d="M2430.67 2436 2296.33 2436C2284.55 2436 2275 2426.45 2275 2414.67L2275 2308 2452 2308 2452 2414.67C2452 2426.45 2442.45 2436 2430.67 2436Z" stroke="#D9D9D9" stroke-width="2.29167" stroke-miterlimit="8" fill="#F2F2F2" fill-rule="evenodd"/><text fill="#005356" font-family="IBM Plex Sans Arabic,IBM Plex Sans Arabic_MSFontService,sans-serif" font-weight="700" font-size="23" direction="rtl" writing-mode="rl-tb" transform="matrix(1 0 0 1 2510.32 2345)" x="77.9167"></text><text fill="#005356" font-family="IBM Plex Sans Arabic,IBM Plex Sans Arabic_MSFontService,sans-serif" font-weight="700" font-size="23" direction="rtl" writing-mode="rl-tb" transform="matrix(1 0 0 1 2327.6 2345)" x="70.4688"></text><path d="M2776.5 2114C2776.5 2092.74 2793.74 2075.5 2815 2075.5 2836.26 2075.5 2853.5 2092.74 2853.5 2114 2853.5 2135.26 2836.26 2152.5 2815 2152.5 2793.74 2152.5 2776.5 2135.26 2776.5 2114Z" stroke="#EC8000" stroke-width="6.875" stroke-miterlimit="8" fill="none" fill-rule="evenodd"/><path d="M2788.5 2114.5C2788.5 2099.59 2800.59 2087.5 2815.5 2087.5 2830.41 2087.5 2842.5 2099.59 2842.5 2114.5 2842.5 2129.41 2830.41 2141.5 2815.5 2141.5 2800.59 2141.5 2788.5 2129.41 2788.5 2114.5Z" stroke="#00A88F" stroke-width="6.875" stroke-miterlimit="8" fill="#FFFFFF" fill-rule="evenodd"/><path d="M2803 2114C2803 2107.92 2808.15 2103 2814.5 2103 2820.85 2103 2826 2107.92 2826 2114 2826 2120.08 2820.85 2125 2814.5 2125 2808.15 2125 2803 2120.08 2803 2114Z" fill="#00619E" fill-rule="evenodd"/><path d="M0 0 331.719 0 331.719 120.886" stroke="#0B4332" stroke-width="4.58333" stroke-linecap="round" stroke-linejoin="round" stroke-miterlimit="10" fill="none" fill-rule="evenodd" transform="matrix(-1 1.22465e-16 1.22465e-16 1 2788.22 2114.5)"/><rect x="2524" y="316" width="362" height="70.0001" fill="#005356"/><text fill="#FFFFFF" font-family="IBM Plex Sans Arabic,IBM Plex Sans Arabic_MSFontService,sans-serif" font-weight="700" font-size="37" direction="rtl" writing-mode="rl-tb" transform="matrix(1 0 0 1 2664.61 361)" x="81.3542"></text><path d="M2864.83 517 2731.17 517C2719.48 517 2710 507.523 2710 495.833L2710 390 2886 390 2886 495.833C2886 507.523 2876.52 517 2864.83 517Z" stroke="#D9D9D9" stroke-width="2.29167" stroke-miterlimit="8" fill="#F2F2F2" fill-rule="evenodd"/><path d="M2679.83 517 2545.17 517C2533.48 517 2524 507.523 2524 495.833L2524 390.001 2701 390.001 2701 495.833C2701 507.523 2691.52 517 2679.83 517Z" stroke="#D9D9D9" stroke-width="2.29167" stroke-miterlimit="8" fill="#F2F2F2" fill-rule="evenodd"/><text fill="#005356" font-family="IBM Plex Sans Arabic,IBM Plex Sans Arabic_MSFontService,sans-serif" font-weight="700" font-size="23" direction="rtl" writing-mode="rl-tb" transform="matrix(1 0 0 1 2759.54 426)" x="77.9167"></text><text fill="#005356" font-family="IBM Plex Sans Arabic,IBM Plex Sans Arabic_MSFontService,sans-serif" font-weight="700" font-size="23" direction="rtl" writing-mode="rl-tb" transform="matrix(1 0 0 1 2576.82 426)" x="70.4688"></text><path d="M0 0 9.16667 474.375" stroke="#0B4332" stroke-width="4.58333" stroke-linecap="round" stroke-linejoin="round" stroke-miterlimit="10" fill="none" fill-rule="evenodd" transform="matrix(1 0 0 -1 2712.5 1014.87)"/><rect x="2032" y="1919" width="362" height="69.9998" fill="#005356"/><text fill="#FFFFFF" font-family="IBM Plex Sans Arabic,IBM Plex Sans Arabic_MSFontService,sans-serif" font-weight="700" font-size="37" direction="rtl" writing-mode="rl-tb" transform="matrix(1 0 0 1 2169.9 1964)" x="85.3646"></text><path d="M2372.83 2119 2238.17 2119C2226.48 2119 2217 2109.52 2217 2097.83L2217 1992 2394 1992 2394 2097.83C2394 2109.52 2384.52 2119 2372.83 2119Z" stroke="#D9D9D9" stroke-width="2.29167" stroke-miterlimit="8" fill="#F2F2F2" fill-rule="evenodd"/><path d="M2186.83 2119 2053.17 2119C2041.48 2119 2032 2109.52 2032 2097.83L2032 1992 2208 1992 2208 2097.83C2208 2109.52 2198.52 2119 2186.83 2119Z" stroke="#D9D9D9" stroke-width="2.29167" stroke-miterlimit="8" fill="#F2F2F2" fill-rule="evenodd"/><text fill="#005356" font-family="IBM Plex Sans Arabic,IBM Plex Sans Arabic_MSFontService,sans-serif" font-weight="700" font-size="23" direction="rtl" writing-mode="rl-tb" transform="matrix(1 0 0 1 2266.83 2029)" x="77.9167"></text><text fill="#005356" font-family="IBM Plex Sans Arabic,IBM Plex Sans Arabic_MSFontService,sans-serif" font-weight="700" font-size="23" direction="rtl" writing-mode="rl-tb" transform="matrix(1 0 0 1 2084.11 2029)" x="70.4688"></text><path d="M2646.5 1834.5C2646.5 1813.51 2663.74 1796.5 2685 1796.5 2706.26 1796.5 2723.5 1813.51 2723.5 1834.5 2723.5 1855.49 2706.26 1872.5 2685 1872.5 2663.74 1872.5 2646.5 1855.49 2646.5 1834.5Z" stroke="#EC8000" stroke-width="6.875" stroke-miterlimit="8" fill="none" fill-rule="evenodd"/><path d="M2657.5 1834.5C2657.5 1819.59 2669.59 1807.5 2684.5 1807.5 2699.41 1807.5 2711.5 1819.59 2711.5 1834.5 2711.5 1849.41 2699.41 1861.5 2684.5 1861.5 2669.59 1861.5 2657.5 1849.41 2657.5 1834.5Z" stroke="#00A88F" stroke-width="6.875" stroke-miterlimit="8" fill="#FFFFFF" fill-rule="evenodd"/><path d="M2673 1833.5C2673 1827.15 2678.15 1822 2684.5 1822 2690.85 1822 2696 1827.15 2696 1833.5 2696 1839.85 2690.85 1845 2684.5 1845 2678.15 1845 2673 1839.85 2673 1833.5Z" fill="#00619E" fill-rule="evenodd"/><path d="M0 0 133.195 0 133.195 188.489 284.739 188.489" stroke="#0B4332" stroke-width="4.58333" stroke-linecap="round" stroke-linejoin="round" stroke-miterlimit="10" fill="none" fill-rule="evenodd" transform="matrix(-1 1.22465e-16 1.22465e-16 1 2673.24 1834.5)"/><rect x="3305" y="469" width="362" height="71.0002" fill="#005356"/><text fill="#FFFFFF" font-family="IBM Plex Sans Arabic,IBM Plex Sans Arabic_MSFontService,sans-serif" font-weight="700" font-size="37" direction="rtl" writing-mode="rl-tb" transform="matrix(1 0 0 1 3368.15 514)" x="236.042"> </text><path d="M3645.83 670 3512.17 670C3500.48 670 3491 660.523 3491 648.833L3491 543 3667 543 3667 648.833C3667 660.523 3657.52 670 3645.83 670Z" stroke="#D9D9D9" stroke-width="2.29167" stroke-miterlimit="8" fill="#F2F2F2" fill-rule="evenodd"/><path d="M3460.83 670 3326.17 670C3314.48 670 3305 660.523 3305 648.833L3305 543 3482 543 3482 648.833C3482 660.523 3472.52 670 3460.83 670Z" stroke="#D9D9D9" stroke-width="2.29167" stroke-miterlimit="8" fill="#F2F2F2" fill-rule="evenodd"/><text fill="#005356" font-family="IBM Plex Sans Arabic,IBM Plex Sans Arabic_MSFontService,sans-serif" font-weight="700" font-size="23" direction="rtl" writing-mode="rl-tb" transform="matrix(1 0 0 1 3540.43 580)" x="77.9167"></text><text fill="#005356" font-family="IBM Plex Sans Arabic,IBM Plex Sans Arabic_MSFontService,sans-serif" font-weight="700" font-size="23" direction="rtl" writing-mode="rl-tb" transform="matrix(1 0 0 1 3357.71 580)" x="70.4688"></text><path d="M2795.5 808C2795.5 786.737 2812.74 769.5 2834 769.5 2855.26 769.5 2872.5 786.737 2872.5 808 2872.5 829.263 2855.26 846.5 2834 846.5 2812.74 846.5 2795.5 829.263 2795.5 808Z" stroke="#EC8000" stroke-width="6.875" stroke-miterlimit="8" fill="none" fill-rule="evenodd"/><path d="M2807.5 808.5C2807.5 793.588 2819.59 781.5 2834.5 781.5 2849.41 781.5 2861.5 793.588 2861.5 808.5 2861.5 823.412 2849.41 835.5 2834.5 835.5 2819.59 835.5 2807.5 823.412 2807.5 808.5Z" stroke="#00A88F" stroke-width="6.875" stroke-miterlimit="8" fill="#FFFFFF" fill-rule="evenodd"/><path d="M2822 807.5C2822 801.149 2827.15 796 2833.5 796 2839.85 796 2845 801.149 2845 807.5 2845 813.851 2839.85 819 2833.5 819 2827.15 819 2822 813.851 2822 807.5Z" fill="#00619E" fill-rule="evenodd"/><path d="M2834.5 780.896 2834.5 573.5 3311.17 573.5" stroke="#0B4332" stroke-width="4.58333" stroke-linecap="round" stroke-linejoin="round" stroke-miterlimit="10" fill="none" fill-rule="evenodd"/><path d="M2674.5 1041C2674.5 1019.74 2691.74 1002.5 2713 1002.5 2734.26 1002.5 2751.5 1019.74 2751.5 1041 2751.5 1062.26 2734.26 1079.5 2713 1079.5 2691.74 1079.5 2674.5 1062.26 2674.5 1041Z" stroke="#EC8000" stroke-width="6.875" stroke-miterlimit="8" fill="none" fill-rule="evenodd"/><path d="M2685.5 1041C2685.5 1025.81 2697.59 1013.5 2712.5 1013.5 2727.41 1013.5 2739.5 1025.81 2739.5 1041 2739.5 1056.19 2727.41 1068.5 2712.5 1068.5 2697.59 1068.5 2685.5 1056.19 2685.5 1041Z" stroke="#00A88F" stroke-width="6.875" stroke-miterlimit="8" fill="#FFFFFF" fill-rule="evenodd"/><path d="M2701 1041C2701 1034.92 2706.15 1030 2712.5 1030 2718.85 1030 2724 1034.92 2724 1041 2724 1047.07 2718.85 1052 2712.5 1052 2706.15 1052 2701 1047.07 2701 1041Z" fill="#00619E" fill-rule="evenodd"/></g></svg>